<?xml version="1.0" encoding="UTF-8"?>
<svg width="107px" height="29px" viewBox="0 0 107 29" version="1.1" xmlns="http://www.w3.org/2000/svg" xmlns:xlink="http://www.w3.org/1999/xlink">
    <title>follow-me</title>
    <defs>
        <linearGradient x1="50%" y1="0%" x2="50%" y2="100%" id="linearGradient-1">
            <stop stop-color="#F9FBFB" offset="0%"></stop>
            <stop stop-color="#EEF2F5" offset="100%"></stop>
        </linearGradient>
    </defs>
    <g id="GitHub" stroke="none" stroke-width="1" fill="none" fill-rule="evenodd">
        <g id="Curves" transform="translate(-188.000000, -29.000000)">
            <g id="follow-me" transform="translate(188.000000, 29.000000)">
                <rect id="Rectangle" stroke="#C7C9CD" fill="url(#linearGradient-1)" x="0.5" y="0.5" width="106" height="28" rx="3"></rect>
                <path d="M35.4438477,19 L35.4438477,15.2612305 L39.2841797,15.2612305 L39.2841797,13.9282227 L35.4438477,13.9282227 L35.4438477,11.2177734 L39.6459961,11.2177734 L39.6459961,9.84033203 L33.8061523,9.84033203 L33.8061523,19 L35.4438477,19 Z M43.8855469,19.1333008 C45.859668,19.1333008 47.1418945,17.8193359 47.1418945,15.6357422 L47.1418945,15.6230469 C47.1418945,13.4521484 45.840625,12.1318359 43.8791992,12.1318359 C41.9241211,12.1318359 40.6291992,13.4648438 40.6291992,15.6230469 L40.6291992,15.6357422 C40.6291992,17.8129883 41.9050781,19.1333008 43.8855469,19.1333008 Z M43.8918945,17.8574219 C42.8826172,17.8574219 42.2415039,17.0512695 42.2415039,15.6357422 L42.2415039,15.6230469 C42.2415039,14.2265625 42.8953125,13.4140625 43.8791992,13.4140625 C44.8821289,13.4140625 45.5295898,14.2202148 45.5295898,15.6230469 L45.5295898,15.6357422 C45.5295898,17.0449219 44.8884766,17.8574219 43.8918945,17.8574219 Z M50.2325195,19 L50.2325195,9.84033203 L48.6519531,9.84033203 L48.6519531,19 L50.2325195,19 Z M53.6532227,19 L53.6532227,9.84033203 L52.0726563,9.84033203 L52.0726563,19 L53.6532227,19 Z M58.4259766,19.1333008 C60.4000977,19.1333008 61.6823242,17.8193359 61.6823242,15.6357422 L61.6823242,15.6230469 C61.6823242,13.4521484 60.3810547,12.1318359 58.4196289,12.1318359 C56.4645508,12.1318359 55.1696289,13.4648438 55.1696289,15.6230469 L55.1696289,15.6357422 C55.1696289,17.8129883 56.4455078,19.1333008 58.4259766,19.1333008 Z M58.4323242,17.8574219 C57.4230469,17.8574219 56.7819336,17.0512695 56.7819336,15.6357422 L56.7819336,15.6230469 C56.7819336,14.2265625 57.4357422,13.4140625 58.4196289,13.4140625 C59.4225586,13.4140625 60.0700195,14.2202148 60.0700195,15.6230469 L60.0700195,15.6357422 C60.0700195,17.0449219 59.4289062,17.8574219 58.4323242,17.8574219 Z M66.0742188,19 L67.3945312,14.0805664 L67.4262695,14.0805664 L68.7529297,19 L70.4160156,19 L72.237793,12.2714844 L70.6762695,12.2714844 L69.5400391,17.4384766 L69.5019531,17.4384766 L68.1879883,12.2714844 L66.6708984,12.2714844 L65.3569336,17.4384766 L65.3251953,17.4384766 L64.1889648,12.2714844 L62.6020508,12.2714844 L64.4238281,19 L66.0742188,19 Z M78.1080078,19 L78.1080078,14.8803711 C78.1080078,14.0615234 78.6412109,13.4648438 79.4029297,13.4648438 C80.1392578,13.4648438 80.5962891,13.9345703 80.5962891,14.6899414 L80.5962891,19 L82.1324219,19 L82.1324219,14.8422852 C82.1324219,14.0297852 82.6529297,13.4648438 83.4146484,13.4648438 C84.1890625,13.4648438 84.6207031,13.940918 84.6207031,14.7724609 L84.6207031,19 L86.2012695,19 L86.2012695,14.3789062 C86.2012695,13.0332031 85.3316406,12.1318359 84.0049805,12.1318359 C83.0337891,12.1318359 82.2339844,12.6523438 81.9102539,13.4902344 L81.872168,13.4902344 C81.6246094,12.6269531 80.9454102,12.1318359 80.005957,12.1318359 C79.1172852,12.1318359 78.4253906,12.6142578 78.1397461,13.3505859 L78.1080078,13.3505859 L78.1080078,12.2714844 L76.5274414,12.2714844 L76.5274414,19 L78.1080078,19 Z M90.8724609,19.1333008 C92.6307617,19.1333008 93.6209961,18.0922852 93.8304688,17.0576172 L93.8495117,16.987793 L92.3705078,16.987793 L92.3578125,17.0322266 C92.2054688,17.4829102 91.6913086,17.9018555 90.9041992,17.9018555 C89.8758789,17.9018555 89.228418,17.2036133 89.2030273,16.0229492 L93.9129883,16.0229492 L93.9129883,15.5151367 C93.9129883,13.4838867 92.7196289,12.1318359 90.7962891,12.1318359 C88.8729492,12.1318359 87.6351563,13.5283203 87.6351563,15.6484375 L87.6351563,15.6547852 C87.6351563,17.7939453 88.8539063,19.1333008 90.8724609,19.1333008 Z M92.3768555,14.9692383 L89.2220703,14.9692383 C89.3490234,13.9345703 89.9774414,13.3696289 90.815332,13.3696289 C91.6532227,13.3696289 92.2625977,13.902832 92.3768555,14.9692383 Z" id="Followme" fill="#000000" fill-rule="nonzero"></path>
                <path d="M18.7832031,20.3304687 C18.2910156,20.3304687 17.8808594,19.9066406 17.8808594,19.4417969 L17.8808594,15.3744141 L13.8955078,15.3744141 C13.4306641,15.3744141 13,14.9642578 13,14.4652344 C13,13.9730469 13.4306641,13.5560547 13.8955078,13.5560547 L17.8808594,13.5560547 L17.8808594,9.48867187 C17.8808594,9.01015625 18.2910156,8.6 18.7832031,8.6 C19.2822266,8.6 19.6923828,9.01015625 19.6923828,9.48867187 L19.6923828,13.5560547 L23.6777344,13.5560547 C24.15625,13.5560547 24.5732422,13.9730469 24.5732422,14.4652344 C24.5732422,14.9642578 24.15625,15.3744141 23.6777344,15.3744141 L19.6923828,15.3744141 L19.6923828,19.4417969 C19.6923828,19.9066406 19.2822266,20.3304687 18.7832031,20.3304687 Z" id="plus" fill="#000000" fill-rule="nonzero"></path>
            </g>
        </g>
    </g>
</svg>