<?xml version="1.0" encoding="UTF-8"?>
<svg width="153px" height="29px" viewBox="0 0 153 29" version="1.1" xmlns="http://www.w3.org/2000/svg" xmlns:xlink="http://www.w3.org/1999/xlink">
    <title>follow-me-varabeis</title>
    <defs>
        <linearGradient x1="50%" y1="0%" x2="50%" y2="100%" id="linearGradient-1">
            <stop stop-color="#F9FBFB" offset="0%"></stop>
            <stop stop-color="#EEF2F5" offset="100%"></stop>
        </linearGradient>
    </defs>
    <g id="GitHub" stroke="none" stroke-width="1" fill="none" fill-rule="evenodd">
        <g id="Curves" transform="translate(-25.000000, -29.000000)">
            <g id="follow-me-varabeis" transform="translate(25.000000, 29.000000)">
                <rect id="Rectangle" stroke="#C7C9CD" fill="url(#linearGradient-1)" x="0.5" y="0.5" width="152" height="28" rx="3"></rect>
                <path d="M35.4438477,19 L35.4438477,15.2612305 L39.2841797,15.2612305 L39.2841797,13.9282227 L35.4438477,13.9282227 L35.4438477,11.2177734 L39.6459961,11.2177734 L39.6459961,9.84033203 L33.8061523,9.84033203 L33.8061523,19 L35.4438477,19 Z M43.8855469,19.1333008 C45.859668,19.1333008 47.1418945,17.8193359 47.1418945,15.6357422 L47.1418945,15.6230469 C47.1418945,13.4521484 45.840625,12.1318359 43.8791992,12.1318359 C41.9241211,12.1318359 40.6291992,13.4648438 40.6291992,15.6230469 L40.6291992,15.6357422 C40.6291992,17.8129883 41.9050781,19.1333008 43.8855469,19.1333008 Z M43.8918945,17.8574219 C42.8826172,17.8574219 42.2415039,17.0512695 42.2415039,15.6357422 L42.2415039,15.6230469 C42.2415039,14.2265625 42.8953125,13.4140625 43.8791992,13.4140625 C44.8821289,13.4140625 45.5295898,14.2202148 45.5295898,15.6230469 L45.5295898,15.6357422 C45.5295898,17.0449219 44.8884766,17.8574219 43.8918945,17.8574219 Z M50.2325195,19 L50.2325195,9.84033203 L48.6519531,9.84033203 L48.6519531,19 L50.2325195,19 Z M53.6532227,19 L53.6532227,9.84033203 L52.0726563,9.84033203 L52.0726563,19 L53.6532227,19 Z M58.4259766,19.1333008 C60.4000977,19.1333008 61.6823242,17.8193359 61.6823242,15.6357422 L61.6823242,15.6230469 C61.6823242,13.4521484 60.3810547,12.1318359 58.4196289,12.1318359 C56.4645508,12.1318359 55.1696289,13.4648438 55.1696289,15.6230469 L55.1696289,15.6357422 C55.1696289,17.8129883 56.4455078,19.1333008 58.4259766,19.1333008 Z M58.4323242,17.8574219 C57.4230469,17.8574219 56.7819336,17.0512695 56.7819336,15.6357422 L56.7819336,15.6230469 C56.7819336,14.2265625 57.4357422,13.4140625 58.4196289,13.4140625 C59.4225586,13.4140625 60.0700195,14.2202148 60.0700195,15.6230469 L60.0700195,15.6357422 C60.0700195,17.0449219 59.4289062,17.8574219 58.4323242,17.8574219 Z M66.0742188,19 L67.3945312,14.0805664 L67.4262695,14.0805664 L68.7529297,19 L70.4160156,19 L72.237793,12.2714844 L70.6762695,12.2714844 L69.5400391,17.4384766 L69.5019531,17.4384766 L68.1879883,12.2714844 L66.6708984,12.2714844 L65.3569336,17.4384766 L65.3251953,17.4384766 L64.1889648,12.2714844 L62.6020508,12.2714844 L64.4238281,19 L66.0742188,19 Z M81.9356445,20.5234375 C82.7544922,20.5234375 83.5162109,20.4091797 84.1382813,20.199707 L84.1382813,19.2158203 C83.6368164,19.4125977 82.8116211,19.5332031 81.9991211,19.5332031 C79.3838867,19.5332031 77.5430664,17.9780273 77.5430664,15.1850586 L77.5430664,15.1787109 C77.5430664,12.5952148 79.2696289,10.8178711 81.7134766,10.8178711 C84.1700195,10.8178711 85.7886719,12.3286133 85.7886719,14.7470703 L85.7886719,14.753418 C85.7886719,16.1435547 85.3887695,16.8925781 84.7920898,16.8925781 C84.3350586,16.8925781 84.0367188,16.4863281 84.0367188,15.6801758 L84.0367188,12.6713867 L82.86875,12.6713867 L82.86875,13.4584961 L82.8179688,13.4584961 C82.5704102,12.8935547 81.9737305,12.5380859 81.2754883,12.5380859 C79.9996094,12.5380859 79.0855469,13.6235352 79.0855469,15.1787109 L79.0855469,15.1850586 C79.0855469,16.8227539 79.9742188,17.9082031 81.2754883,17.9082031 C82.0816406,17.9082031 82.7227539,17.5273438 83.0401367,16.765625 L83.090918,16.765625 L83.1353516,16.8608398 C83.3829102,17.4765625 83.9415039,17.9272461 84.7286133,17.9272461 C85.9854492,17.9272461 86.8995117,16.7719727 86.8995117,14.715332 L86.8995117,14.7089844 C86.8995117,11.7319336 84.7920898,9.84033203 81.7706055,9.84033203 C78.6285156,9.84033203 76.4322266,12.0048828 76.4322266,15.1723633 L76.4322266,15.1787109 C76.4322266,18.5620117 78.7173828,20.5234375 81.9356445,20.5234375 Z M81.5484375,16.8417969 C80.818457,16.8417969 80.3677734,16.2260742 80.3677734,15.2041016 L80.3677734,15.1977539 C80.3677734,14.1884766 80.818457,13.5917969 81.5611328,13.5917969 C82.3038086,13.5917969 82.7925781,14.2075195 82.7925781,15.1977539 L82.7925781,15.2104492 C82.7925781,16.2133789 82.3038086,16.8417969 81.5484375,16.8417969 Z M92.0086914,19 L94.3763672,12.2714844 L92.7259766,12.2714844 L91.1708008,17.5336914 L91.1327148,17.5336914 L89.5711914,12.2714844 L87.8890625,12.2714844 L90.2694336,19 L92.0086914,19 Z M97.397168,19.1142578 C98.2858398,19.1142578 99.0348633,18.6699219 99.4220703,17.965332 L99.4601563,17.965332 L99.4601563,19 L101.040723,19 L101.040723,14.3725586 C101.040723,13.0205078 99.9552734,12.1318359 98.2731445,12.1318359 C96.565625,12.1318359 95.530957,13.0268555 95.4357422,14.2202148 L95.4293945,14.2963867 L96.8957031,14.2963867 L96.9083984,14.2392578 C97.0099609,13.7441406 97.4669922,13.3950195 98.2160156,13.3950195 C99.0158203,13.3950195 99.4601563,13.8076172 99.4601563,14.4868164 L99.4601563,14.9501953 L97.7018555,15.0581055 C96.0705078,15.159668 95.14375,15.8769531 95.14375,17.0703125 L95.14375,17.0830078 C95.14375,18.2827148 96.0514648,19.1142578 97.397168,19.1142578 Z M97.8668945,17.9082031 C97.175,17.9082031 96.7179688,17.5717773 96.7179688,17.0195312 L96.7179688,17.0131836 C96.7179688,16.4799805 97.1432617,16.1435547 97.9240234,16.0927734 L99.4601563,15.9975586 L99.4601563,16.5053711 C99.4601563,17.3051758 98.7746094,17.9082031 97.8668945,17.9082031 Z M104.34082,19 L104.34082,15.0961914 C104.34082,14.0996094 104.880371,13.534668 105.775391,13.534668 C106.041992,13.534668 106.283203,13.5727539 106.416504,13.6235352 L106.416504,12.1953125 C106.295898,12.1635742 106.111816,12.1318359 105.915039,12.1318359 C105.140625,12.1318359 104.582031,12.6206055 104.372559,13.4331055 L104.34082,13.4331055 L104.34082,12.2714844 L102.760254,12.2714844 L102.760254,19 L104.34082,19 Z M109.519824,19.1142578 C110.408496,19.1142578 111.15752,18.6699219 111.544727,17.965332 L111.582813,17.965332 L111.582813,19 L113.163379,19 L113.163379,14.3725586 C113.163379,13.0205078 112.07793,12.1318359 110.395801,12.1318359 C108.688281,12.1318359 107.653613,13.0268555 107.558398,14.2202148 L107.552051,14.2963867 L109.018359,14.2963867 L109.031055,14.2392578 C109.132617,13.7441406 109.589648,13.3950195 110.338672,13.3950195 C111.138477,13.3950195 111.582813,13.8076172 111.582813,14.4868164 L111.582813,14.9501953 L109.824512,15.0581055 C108.193164,15.159668 107.266406,15.8769531 107.266406,17.0703125 L107.266406,17.0830078 C107.266406,18.2827148 108.174121,19.1142578 109.519824,19.1142578 Z M109.989551,17.9082031 C109.297656,17.9082031 108.840625,17.5717773 108.840625,17.0195312 L108.840625,17.0131836 C108.840625,16.4799805 109.265918,16.1435547 110.04668,16.0927734 L111.582813,15.9975586 L111.582813,16.5053711 C111.582813,17.3051758 110.897266,17.9082031 109.989551,17.9082031 Z M118.640723,19.1333008 C120.341895,19.1333008 121.420996,17.800293 121.420996,15.6357422 L121.420996,15.6293945 C121.420996,13.4584961 120.335547,12.1318359 118.64707,12.1318359 C117.694922,12.1318359 116.926855,12.6206055 116.545996,13.4267578 L116.50791,13.4267578 L116.50791,9.84033203 L114.927344,9.84033203 L114.927344,19 L116.50791,19 L116.50791,17.8574219 L116.545996,17.8574219 C116.926855,18.6508789 117.669531,19.1333008 118.640723,19.1333008 Z M118.164648,17.800293 C117.187109,17.800293 116.50791,16.9560547 116.50791,15.6357422 L116.50791,15.6293945 C116.50791,14.3154297 117.193457,13.4648438 118.164648,13.4648438 C119.173926,13.4648438 119.808691,14.2900391 119.808691,15.6293945 L119.808691,15.6357422 C119.808691,16.9750977 119.180273,17.800293 118.164648,17.800293 Z M125.844629,19.1333008 C127.60293,19.1333008 128.593164,18.0922852 128.802637,17.0576172 L128.82168,16.987793 L127.342676,16.987793 L127.32998,17.0322266 C127.177637,17.4829102 126.663477,17.9018555 125.876367,17.9018555 C124.848047,17.9018555 124.200586,17.2036133 124.175195,16.0229492 L128.885156,16.0229492 L128.885156,15.5151367 C128.885156,13.4838867 127.691797,12.1318359 125.768457,12.1318359 C123.845117,12.1318359 122.607324,13.5283203 122.607324,15.6484375 L122.607324,15.6547852 C122.607324,17.7939453 123.826074,19.1333008 125.844629,19.1333008 Z M127.349023,14.9692383 L124.194238,14.9692383 C124.321191,13.9345703 124.949609,13.3696289 125.7875,13.3696289 C126.625391,13.3696289 127.234766,13.902832 127.349023,14.9692383 Z M131.188672,11.3066406 C131.683789,11.3066406 132.064648,10.9130859 132.064648,10.4433594 C132.064648,9.9609375 131.683789,9.57373047 131.188672,9.57373047 C130.693555,9.57373047 130.306348,9.9609375 130.306348,10.4433594 C130.306348,10.9130859 130.693555,11.3066406 131.188672,11.3066406 Z M131.975781,19 L131.975781,12.2714844 L130.395215,12.2714844 L130.395215,19 L131.975781,19 Z M136.393066,19.1333008 C138.043457,19.1333008 139.217773,18.2827148 139.217773,17.0131836 L139.217773,17.0068359 C139.217773,16.0292969 138.678223,15.4833984 137.288086,15.1723633 L136.164551,14.9248047 C135.466309,14.7661133 135.206055,14.512207 135.206055,14.125 L135.206055,14.1186523 C135.206055,13.6235352 135.644043,13.2998047 136.342285,13.2998047 C137.078613,13.2998047 137.510254,13.6933594 137.580078,14.2329102 L137.586426,14.2836914 L139.059082,14.2836914 L139.052734,14.2138672 C138.995605,13.0522461 138.018066,12.1318359 136.342285,12.1318359 C134.717285,12.1318359 133.644531,12.9633789 133.644531,14.1948242 L133.644531,14.2011719 C133.644531,15.1977539 134.291992,15.8261719 135.580566,16.1118164 L136.697754,16.359375 C137.395996,16.5180664 137.630859,16.746582 137.630859,17.152832 L137.630859,17.1591797 C137.630859,17.6542969 137.16748,17.965332 136.399414,17.965332 C135.599609,17.965332 135.161621,17.6225586 135.041016,17.0449219 L135.02832,16.987793 L133.473145,16.987793 L133.479492,17.0449219 C133.619141,18.2954102 134.628418,19.1333008 136.393066,19.1333008 Z" id="Follow@varabeis" fill="#000000" fill-rule="nonzero"></path>
                <path d="M18.7832031,20.3304687 C18.2910156,20.3304687 17.8808594,19.9066406 17.8808594,19.4417969 L17.8808594,15.3744141 L13.8955078,15.3744141 C13.4306641,15.3744141 13,14.9642578 13,14.4652344 C13,13.9730469 13.4306641,13.5560547 13.8955078,13.5560547 L17.8808594,13.5560547 L17.8808594,9.48867187 C17.8808594,9.01015625 18.2910156,8.6 18.7832031,8.6 C19.2822266,8.6 19.6923828,9.01015625 19.6923828,9.48867187 L19.6923828,13.5560547 L23.6777344,13.5560547 C24.15625,13.5560547 24.5732422,13.9730469 24.5732422,14.4652344 C24.5732422,14.9642578 24.15625,15.3744141 23.6777344,15.3744141 L19.6923828,15.3744141 L19.6923828,19.4417969 C19.6923828,19.9066406 19.2822266,20.3304687 18.7832031,20.3304687 Z" id="plus" fill="#000000" fill-rule="nonzero"></path>
            </g>
        </g>
    </g>
</svg>