<?xml version="1.0" encoding="UTF-8"?>
<svg width="134px" height="29px" viewBox="0 0 134 29" version="1.1" xmlns="http://www.w3.org/2000/svg" xmlns:xlink="http://www.w3.org/1999/xlink">
    <title>more-libraries</title>
    <defs>
        <linearGradient x1="50%" y1="0%" x2="50%" y2="100%" id="linearGradient-1">
            <stop stop-color="#F9FBFB" offset="0%"></stop>
            <stop stop-color="#EEF2F5" offset="100%"></stop>
        </linearGradient>
    </defs>
    <g id="GitHub" stroke="none" stroke-width="1" fill="none" fill-rule="evenodd">
        <g id="Curves" transform="translate(-25.000000, -185.000000)">
            <g id="more-libraries" transform="translate(25.000000, 185.000000)">
                <rect id="Rectangle" stroke="#C7C9CD" fill="url(#linearGradient-1)" x="0.5" y="0.5" width="133" height="28" rx="3"></rect>
                <path d="M35.2851562,19 L35.2851562,12.5 L35.3295898,12.5 L37.9765625,19 L39.09375,19 L41.7407227,12.5 L41.7851562,12.5 L41.7851562,19 L43.2578125,19 L43.2578125,9.84033203 L41.3662109,9.84033203 L38.5605469,16.8291016 L38.5097656,16.8291016 L35.7041016,9.84033203 L33.8061523,9.84033203 L33.8061523,19 L35.2851562,19 Z M48.1448242,19.1333008 C50.1189453,19.1333008 51.4011719,17.8193359 51.4011719,15.6357422 C51.4011719,13.4584961 50.10625,12.1318359 48.1448242,12.1318359 C46.1833984,12.1318359 44.8884766,13.4648438 44.8884766,15.6357422 C44.8884766,17.8193359 46.1707031,19.1333008 48.1448242,19.1333008 Z M48.1448242,17.8828125 C47.1418945,17.8828125 46.4944336,17.0703125 46.4944336,15.6357422 C46.4944336,14.2075195 47.1482422,13.3886719 48.1448242,13.3886719 C49.1477539,13.3886719 49.7952148,14.2075195 49.7952148,15.6357422 C49.7952148,17.0703125 49.1477539,17.8828125 48.1448242,17.8828125 Z M54.4473633,19 L54.4473633,15.0834961 C54.4473633,14.1376953 54.9869141,13.5600586 55.8819336,13.5600586 C56.1485352,13.5600586 56.3897461,13.5981445 56.5230469,13.6489258 L56.5230469,12.2207031 C56.4087891,12.1953125 56.2310547,12.1572266 56.0279297,12.1572266 C55.2344727,12.1572266 54.6441406,12.6269531 54.415625,13.4458008 L54.3838867,13.4458008 L54.3838867,12.2714844 L52.8667969,12.2714844 L52.8667969,19 L54.4473633,19 Z M60.4896484,19.1333008 C62.0829102,19.1333008 63.2635742,18.2573242 63.4666992,16.987793 L61.9876953,16.987793 C61.8163086,17.5463867 61.2577148,17.9145508 60.5213867,17.9145508 C59.4867187,17.9145508 58.8265625,17.190918 58.8265625,16.1118164 L58.8265625,16.0166016 L63.5301758,16.0166016 L63.5301758,15.5024414 C63.5301758,13.4584961 62.3368164,12.1318359 60.4261719,12.1318359 C58.4837891,12.1318359 57.2523437,13.534668 57.2523437,15.6611328 C57.2523437,17.8066406 58.4710937,19.1333008 60.4896484,19.1333008 Z M61.9813477,14.9755859 L58.8392578,14.9755859 C58.9027344,14.0361328 59.5438477,13.3569336 60.4325195,13.3569336 C61.3402344,13.3569336 61.9496094,14.0234375 61.9813477,14.9755859 Z M74.0024414,19 L74.0024414,17.6162109 L69.8447266,17.6162109 L69.8447266,9.84033203 L68.2070312,9.84033203 L68.2070312,19 L74.0024414,19 Z M76.2932617,11.2558594 C76.7756836,11.2558594 77.156543,10.8686523 77.156543,10.3989258 C77.156543,9.92285156 76.7756836,9.54199219 76.2932617,9.54199219 C75.8108398,9.54199219 75.4236328,9.92285156 75.4236328,10.3989258 C75.4236328,10.8686523 75.8108398,11.2558594 76.2932617,11.2558594 Z M77.0867188,19 L77.0867188,12.2714844 L75.5061523,12.2714844 L75.5061523,19 L77.0867188,19 Z M82.6275391,19.1079102 C84.3287109,19.1079102 85.4014648,17.7875977 85.4014648,15.6357422 C85.4014648,13.4838867 84.3223633,12.1572266 82.6275391,12.1572266 C81.6753906,12.1572266 80.9073242,12.6396484 80.5264648,13.4267578 L80.4883789,13.4267578 L80.4883789,9.84033203 L78.9078125,9.84033203 L78.9078125,19 L80.4566406,19 L80.4566406,17.8510742 L80.4883789,17.8510742 C80.8819336,18.6318359 81.6373047,19.1079102 82.6275391,19.1079102 Z M82.1387695,17.8129883 C81.1612305,17.8129883 80.4820313,16.9560547 80.4820313,15.6357422 C80.4820313,14.328125 81.1612305,13.4584961 82.1387695,13.4584961 C83.1480469,13.4584961 83.7828125,14.3027344 83.7828125,15.6357422 C83.7828125,16.9750977 83.1543945,17.8129883 82.1387695,17.8129883 Z M88.4540039,19 L88.4540039,15.0834961 C88.4540039,14.1376953 88.9935547,13.5600586 89.8885742,13.5600586 C90.1551758,13.5600586 90.3963867,13.5981445 90.5296875,13.6489258 L90.5296875,12.2207031 C90.4154297,12.1953125 90.2376953,12.1572266 90.0345703,12.1572266 C89.2411133,12.1572266 88.6507813,12.6269531 88.4222656,13.4458008 L88.3905273,13.4458008 L88.3905273,12.2714844 L86.8734375,12.2714844 L86.8734375,19 L88.4540039,19 Z M93.6266602,19.1079102 C94.4899414,19.1079102 95.3341797,18.6572266 95.7213867,17.9272461 L95.753125,17.9272461 L95.753125,19 L97.2765625,19 L97.2765625,14.3662109 C97.2765625,13.0141602 96.1911133,12.1318359 94.5216797,12.1318359 C92.8078125,12.1318359 91.7350586,13.0332031 91.6652344,14.2900391 L93.131543,14.2900391 C93.2331055,13.7314453 93.7091797,13.3696289 94.4582031,13.3696289 C95.2389648,13.3696289 95.7150391,13.7758789 95.7150391,14.4804688 L95.7150391,14.9628906 L93.9376953,15.0644531 C92.3,15.1660156 91.3795898,15.8833008 91.3795898,17.0766602 C91.3795898,18.2890625 92.3253906,19.1079102 93.6266602,19.1079102 Z M94.1027344,17.9145508 C93.4171875,17.9145508 92.9601563,17.5654297 92.9601563,17.0131836 C92.9601563,16.4799805 93.3981445,16.137207 94.1598633,16.0864258 L95.7150391,15.9912109 L95.7150391,16.5053711 C95.7150391,17.3178711 94.9977539,17.9145508 94.1027344,17.9145508 Z M100.57666,19 L100.57666,15.0834961 C100.57666,14.1376953 101.116211,13.5600586 102.01123,13.5600586 C102.277832,13.5600586 102.519043,13.5981445 102.652344,13.6489258 L102.652344,12.2207031 C102.538086,12.1953125 102.360352,12.1572266 102.157227,12.1572266 C101.36377,12.1572266 100.773438,12.6269531 100.544922,13.4458008 L100.513184,13.4458008 L100.513184,12.2714844 L98.9960938,12.2714844 L98.9960938,19 L100.57666,19 Z M104.740039,11.2558594 C105.222461,11.2558594 105.60332,10.8686523 105.60332,10.3989258 C105.60332,9.92285156 105.222461,9.54199219 104.740039,9.54199219 C104.257617,9.54199219 103.87041,9.92285156 103.87041,10.3989258 C103.87041,10.8686523 104.257617,11.2558594 104.740039,11.2558594 Z M105.533496,19 L105.533496,12.2714844 L103.95293,12.2714844 L103.95293,19 L105.533496,19 Z M110.268164,19.1333008 C111.861426,19.1333008 113.04209,18.2573242 113.245215,16.987793 L111.766211,16.987793 C111.594824,17.5463867 111.03623,17.9145508 110.299902,17.9145508 C109.265234,17.9145508 108.605078,17.190918 108.605078,16.1118164 L108.605078,16.0166016 L113.308691,16.0166016 L113.308691,15.5024414 C113.308691,13.4584961 112.115332,12.1318359 110.204688,12.1318359 C108.262305,12.1318359 107.030859,13.534668 107.030859,15.6611328 C107.030859,17.8066406 108.249609,19.1333008 110.268164,19.1333008 Z M111.759863,14.9755859 L108.617773,14.9755859 C108.68125,14.0361328 109.322363,13.3569336 110.211035,13.3569336 C111.11875,13.3569336 111.728125,14.0234375 111.759863,14.9755859 Z M117.408594,19.1333008 C119.058984,19.1333008 120.226953,18.2763672 120.226953,17.0068359 C120.226953,16.0292969 119.687402,15.4897461 118.290918,15.1787109 L117.17373,14.9311523 C116.469141,14.7724609 116.189844,14.5058594 116.189844,14.1186523 C116.189844,13.6235352 116.653223,13.293457 117.351465,13.293457 C118.081445,13.293457 118.532129,13.6806641 118.595605,14.2900391 L120.068262,14.2900391 C120.030176,13.0141602 118.98916,12.1318359 117.351465,12.1318359 C115.726465,12.1318359 114.653711,12.9697266 114.653711,14.2011719 C114.653711,15.1977539 115.301172,15.8325195 116.589746,16.1181641 L117.706934,16.3657227 C118.411523,16.5244141 118.652734,16.7529297 118.652734,17.1591797 C118.652734,17.6606445 118.17666,17.9780273 117.408594,17.9780273 C116.608789,17.9780273 116.158105,17.6479492 116.0375,16.9941406 L114.482324,16.9941406 C114.609277,18.2954102 115.650293,19.1333008 117.408594,19.1333008 Z" id="MoreLibraries" fill="#000000" fill-rule="nonzero"></path>
                <path d="M22.8637695,11.2304688 L23.6381836,10.4560547 C24.019043,10.0751953 24.0317383,9.64355469 23.6826172,9.28808594 L23.371582,8.97070312 C23.0161133,8.62158203 22.5717773,8.64697266 22.1972656,9.02148438 L21.4165039,9.78955078 L22.8637695,11.2304688 Z M23.3969727,19.1967773 C23.6064453,18.9936523 23.6064453,18.6508789 23.3969727,18.4414062 L14.3261719,9.38330078 C14.1230469,9.17382812 13.7675781,9.17382812 13.5644531,9.38330078 C13.3676758,9.58642578 13.3676758,9.93554688 13.5644531,10.1386719 L22.6416016,19.1967773 C22.8447266,19.3999023 23.1938477,19.40625 23.3969727,19.1967773 Z M20.1279297,13.9536133 L22.152832,11.9287109 L20.7119141,10.4941406 L18.6870117,12.519043 L20.1279297,13.9536133 Z M12.8979492,20.1552734 L14.5673828,19.5141602 L18.1538086,15.9277344 L16.7128906,14.4868164 L13.1328125,18.0795898 L12.4853516,19.7236328 C12.3837891,19.9902344 12.6567383,20.237793 12.8979492,20.1552734 Z" id="icon" fill="#000000" fill-rule="nonzero"></path>
            </g>
        </g>
    </g>
</svg>