<?xml version="1.0" encoding="UTF-8"?>
<svg width="184px" height="29px" viewBox="0 0 184 29" version="1.1" xmlns="http://www.w3.org/2000/svg" xmlns:xlink="http://www.w3.org/1999/xlink">
    <title>open-telegram-stikers</title>
    <defs>
        <linearGradient x1="50%" y1="0%" x2="50%" y2="100%" id="linearGradient-1">
            <stop stop-color="#F9FBFB" offset="0%"></stop>
            <stop stop-color="#EEF2F5" offset="100%"></stop>
        </linearGradient>
    </defs>
    <g id="GitHub" stroke="none" stroke-width="1" fill="none" fill-rule="evenodd">
        <g id="Curves" transform="translate(-25.000000, -146.000000)">
            <g id="open-telegram-stikers" transform="translate(25.000000, 146.000000)">
                <rect id="Rectangle" stroke="#C7C9CD" fill="url(#linearGradient-1)" x="0.5" y="0.5" width="183" height="28" rx="3"></rect>
                <text id="Open-Telergam-Stiker" font-family="SFProDisplay-Semibold, SF Pro Display" font-size="13" font-weight="500" letter-spacing="0.45" fill="#000000">
                    <tspan x="33" y="19">Open Telergam Stikers</tspan>
                </text>
                <path d="M25.1282006,8.35590744 C24.9405168,8.12637295 24.6594015,8 24.3365527,8 C24.1610608,8 23.9751355,8.03692716 23.7840521,8.10996085 L10.7774873,13.0749635 C10.0872425,13.3383772 9.9942799,13.7336736 10.0002586,13.9458582 C10.0062372,14.1580428 10.1214734,14.5474778 10.8255512,14.7715025 C10.8297715,14.772792 10.8339917,14.7740815 10.8382119,14.7752538 L13.5361216,15.5473245 L14.9951546,19.7195069 C15.1940923,20.2883023 15.6406178,20.6416307 16.160646,20.6416307 C16.4885357,20.6416307 16.8110328,20.5042383 17.0933204,20.2444587 L18.7620762,18.7079373 L21.1825047,20.6568705 C21.1827391,20.657105 21.1830908,20.6572222 21.1833253,20.6574567 L21.2063022,20.6759788 C21.2084123,20.6776201 21.2106397,20.6793785 21.2127498,20.6810197 C21.4817905,20.8896874 21.7754493,21 22.0623088,21 L22.062426,21 C22.6228982,21 23.0691892,20.5851263 23.1991963,19.94318 L25.3303035,9.42023014 C25.4158807,8.99785381 25.3441365,8.6199073 25.1282006,8.35590744 L25.1282006,8.35590744 Z M14.4386682,15.4006709 L19.643756,12.741564 L16.402724,16.1854023 C16.3496192,16.2417894 16.3119887,16.3108374 16.2934665,16.3859812 L15.6685183,18.9174256 L14.4386682,15.4006709 Z M16.4833776,19.5821144 C16.4618074,19.6019262 16.4401201,19.6196277 16.4184327,19.6359226 L16.9982476,17.2875899 L18.0529576,18.1369145 L16.4833776,19.5821144 Z M24.4479203,9.24145582 L22.3168131,19.7645229 C22.296298,19.8652226 22.230767,20.0995635 22.0623088,20.0995635 C21.9790762,20.0995635 21.8745078,20.0541959 21.7674777,19.9717839 L19.0247865,17.7634227 C19.0244348,17.763071 19.0239659,17.7627193 19.023497,17.7624849 L17.3915512,16.4483471 L22.0784864,11.4681047 C22.2285396,11.3086731 22.2421382,11.064485 22.1107244,10.8893448 C21.9791934,10.7142045 21.7408667,10.6591069 21.5459148,10.7587516 L13.8371659,14.6969448 L11.1025635,13.914558 L24.1051425,8.9510794 C24.2149861,8.90911141 24.2916539,8.90031922 24.3365527,8.90031922 C24.3641015,8.90031922 24.4131033,8.90360164 24.4312738,8.9259924 C24.4551885,8.95518243 24.4856681,9.05470989 24.4479203,9.24145582 L24.4479203,9.24145582 Z" id="Shape" stroke="#000000" stroke-width="0.3" fill="#000000" fill-rule="nonzero"></path>
            </g>
        </g>
    </g>
</svg>