<?xml version="1.0" encoding="UTF-8"?>
<svg width="184px" height="29px" viewBox="0 0 184 29" version="1.1" xmlns="http://www.w3.org/2000/svg" xmlns:xlink="http://www.w3.org/1999/xlink">
    <title>open-telegram-stikers</title>
    <defs>
        <linearGradient x1="50%" y1="0%" x2="50%" y2="100%" id="linearGradient-1">
            <stop stop-color="#F9FBFB" offset="0%"></stop>
            <stop stop-color="#EEF2F5" offset="100%"></stop>
        </linearGradient>
    </defs>
    <g id="GitHub" stroke="none" stroke-width="1" fill="none" fill-rule="evenodd">
        <g id="Curves" transform="translate(-25.000000, -146.000000)">
            <g id="open-telegram-stikers" transform="translate(25.000000, 146.000000)">
                <rect id="Rectangle" stroke="#C7C9CD" fill="url(#linearGradient-1)" x="0.5" y="0.5" width="183" height="28" rx="3"></rect>
                <path d="M37.8432617,19.1523438 C40.5092773,19.1523438 42.1850586,17.3369141 42.1850586,14.4233398 C42.1850586,11.5097656 40.5092773,9.68798828 37.8432617,9.68798828 C35.1708984,9.68798828 33.4951172,11.5097656 33.4951172,14.4233398 C33.4951172,17.3369141 35.1708984,19.1523438 37.8432617,19.1523438 Z M37.8432617,17.7558594 C36.2055664,17.7558594 35.1708984,16.4609375 35.1708984,14.4233398 C35.1708984,12.3793945 36.2055664,11.0844727 37.8432617,11.0844727 C39.4746094,11.0844727 40.515625,12.3793945 40.515625,14.4233398 C40.515625,16.4609375 39.4746094,17.7558594 37.8432617,17.7558594 Z M45.3582031,21.215332 L45.3582031,17.8828125 L45.3899414,17.8828125 C45.7581055,18.6381836 46.5198242,19.1079102 47.4973633,19.1079102 C49.1858398,19.1079102 50.2649414,17.78125 50.2649414,15.6357422 C50.2649414,13.4838867 49.1794922,12.1572266 47.4719727,12.1572266 C46.4944336,12.1572266 45.7327148,12.6523438 45.3518555,13.4331055 L45.3201172,13.4331055 L45.3201172,12.2714844 L43.7776367,12.2714844 L43.7776367,21.215332 L45.3582031,21.215332 Z M46.9895508,17.8129883 C46.0056641,17.8129883 45.3518555,16.9560547 45.3455078,15.6357422 C45.3518555,14.328125 46.0056641,13.4584961 46.9895508,13.4584961 C48.0115234,13.4584961 48.6462891,14.309082 48.6462891,15.6357422 C48.6462891,16.96875 48.0115234,17.8129883 46.9895508,17.8129883 Z M54.6885742,19.1333008 C56.2818359,19.1333008 57.4625,18.2573242 57.665625,16.987793 L56.1866211,16.987793 C56.0152344,17.5463867 55.4566406,17.9145508 54.7203125,17.9145508 C53.6856445,17.9145508 53.0254883,17.190918 53.0254883,16.1118164 L53.0254883,16.0166016 L57.7291016,16.0166016 L57.7291016,15.5024414 C57.7291016,13.4584961 56.5357422,12.1318359 54.6250977,12.1318359 C52.6827148,12.1318359 51.4512695,13.534668 51.4512695,15.6611328 C51.4512695,17.8066406 52.6700195,19.1333008 54.6885742,19.1333008 Z M56.1802734,14.9755859 L53.0381836,14.9755859 C53.1016602,14.0361328 53.7427734,13.3569336 54.6314453,13.3569336 C55.5391602,13.3569336 56.1485352,14.0234375 56.1802734,14.9755859 Z M60.775293,19 L60.775293,15.1025391 C60.775293,14.1376953 61.3529297,13.4838867 62.2606445,13.4838867 C63.1620117,13.4838867 63.6063477,14.0170898 63.6063477,14.9692383 L63.6063477,19 L65.1869141,19 L65.1869141,14.6518555 C65.1869141,13.0966797 64.3426758,12.1445312 62.8573242,12.1445312 C61.8226562,12.1445312 61.1053711,12.6269531 60.7435547,13.4267578 L60.7118164,13.4267578 L60.7118164,12.2714844 L59.1947266,12.2714844 L59.1947266,19 L60.775293,19 Z M73.9833984,19 L73.9833984,11.2241211 L76.7192383,11.2241211 L76.7192383,9.84033203 L69.6098633,9.84033203 L69.6098633,11.2241211 L72.3520508,11.2241211 L72.3520508,19 L73.9833984,19 Z M79.5115234,19.1333008 C81.1047852,19.1333008 82.2854492,18.2573242 82.4885742,16.987793 L81.0095703,16.987793 C80.8381836,17.5463867 80.2795898,17.9145508 79.5432617,17.9145508 C78.5085938,17.9145508 77.8484375,17.190918 77.8484375,16.1118164 L77.8484375,16.0166016 L82.5520508,16.0166016 L82.5520508,15.5024414 C82.5520508,13.4584961 81.3586914,12.1318359 79.4480469,12.1318359 C77.5056641,12.1318359 76.2742188,13.534668 76.2742188,15.6611328 C76.2742188,17.8066406 77.4929688,19.1333008 79.5115234,19.1333008 Z M81.0032227,14.9755859 L77.8611328,14.9755859 C77.9246094,14.0361328 78.5657227,13.3569336 79.4543945,13.3569336 C80.3621094,13.3569336 80.9714844,14.0234375 81.0032227,14.9755859 Z M85.6426758,19 L85.6426758,9.84033203 L84.0621094,9.84033203 L84.0621094,19 L85.6426758,19 Z M90.3963867,19.1333008 C91.9896484,19.1333008 93.1703125,18.2573242 93.3734375,16.987793 L91.8944336,16.987793 C91.7230469,17.5463867 91.1644531,17.9145508 90.428125,17.9145508 C89.393457,17.9145508 88.7333008,17.190918 88.7333008,16.1118164 L88.7333008,16.0166016 L93.4369141,16.0166016 L93.4369141,15.5024414 C93.4369141,13.4584961 92.2435547,12.1318359 90.3329102,12.1318359 C88.3905273,12.1318359 87.159082,13.534668 87.159082,15.6611328 C87.159082,17.8066406 88.377832,19.1333008 90.3963867,19.1333008 Z M91.8880859,14.9755859 L88.7459961,14.9755859 C88.8094727,14.0361328 89.4505859,13.3569336 90.3392578,13.3569336 C91.2469727,13.3569336 91.8563477,14.0234375 91.8880859,14.9755859 Z M96.4831055,19 L96.4831055,15.0834961 C96.4831055,14.1376953 97.0226563,13.5600586 97.9176758,13.5600586 C98.1842773,13.5600586 98.4254883,13.5981445 98.5587891,13.6489258 L98.5587891,12.2207031 C98.4445313,12.1953125 98.2667969,12.1572266 98.0636719,12.1572266 C97.2702148,12.1572266 96.6798828,12.6269531 96.4513672,13.4458008 L96.4196289,13.4458008 L96.4196289,12.2714844 L94.9025391,12.2714844 L94.9025391,19 L96.4831055,19 Z M102.531738,21.5390625 C104.493164,21.5390625 105.781738,20.4980469 105.781738,18.8920898 L105.781738,12.2714844 L104.23291,12.2714844 L104.23291,13.4267578 L104.20752,13.4267578 C103.820313,12.6523438 103.045898,12.1572266 102.087402,12.1572266 C100.367188,12.1572266 99.2880859,13.4838867 99.2880859,15.6103516 C99.2880859,17.7050781 100.392578,19.0063477 102.055664,19.0063477 C103.020508,19.0063477 103.813965,18.5239258 104.163086,17.800293 L104.201172,17.800293 L104.201172,18.9365234 C104.201172,19.793457 103.61084,20.3710938 102.58252,20.3710938 C101.833496,20.3710938 101.255859,20.0219727 101.084473,19.5078125 L99.5166016,19.5078125 C99.675293,20.6884766 100.868652,21.5390625 102.531738,21.5390625 Z M102.538086,17.7495117 C101.541504,17.7495117 100.906738,16.949707 100.906738,15.6166992 C100.906738,14.2963867 101.541504,13.4584961 102.538086,13.4584961 C103.547363,13.4584961 104.201172,14.309082 104.201172,15.6166992 C104.201172,16.9306641 103.547363,17.7495117 102.538086,17.7495117 Z M109.500781,19.1079102 C110.364063,19.1079102 111.208301,18.6572266 111.595508,17.9272461 L111.627246,17.9272461 L111.627246,19 L113.150684,19 L113.150684,14.3662109 C113.150684,13.0141602 112.065234,12.1318359 110.395801,12.1318359 C108.681934,12.1318359 107.60918,13.0332031 107.539355,14.2900391 L109.005664,14.2900391 C109.107227,13.7314453 109.583301,13.3696289 110.332324,13.3696289 C111.113086,13.3696289 111.58916,13.7758789 111.58916,14.4804688 L111.58916,14.9628906 L109.811816,15.0644531 C108.174121,15.1660156 107.253711,15.8833008 107.253711,17.0766602 C107.253711,18.2890625 108.199512,19.1079102 109.500781,19.1079102 Z M109.976855,17.9145508 C109.291309,17.9145508 108.834277,17.5654297 108.834277,17.0131836 C108.834277,16.4799805 109.272266,16.137207 110.033984,16.0864258 L111.58916,15.9912109 L111.58916,16.5053711 C111.58916,17.3178711 110.871875,17.9145508 109.976855,17.9145508 Z M116.450781,19 L116.450781,14.8803711 C116.450781,14.0678711 116.983984,13.4775391 117.745703,13.4775391 C118.482031,13.4775391 118.939063,13.940918 118.939063,14.6899414 L118.939063,19 L120.475195,19 L120.475195,14.8422852 C120.475195,14.0361328 120.995703,13.4775391 121.757422,13.4775391 C122.531836,13.4775391 122.963477,13.9472656 122.963477,14.7724609 L122.963477,19 L124.544043,19 L124.544043,14.3852539 C124.544043,13.0395508 123.674414,12.1445312 122.347754,12.1445312 C121.376563,12.1445312 120.576758,12.6650391 120.253027,13.496582 L120.214941,13.496582 C119.967383,12.6333008 119.288184,12.1445312 118.336035,12.1445312 C117.421973,12.1445312 116.711035,12.6586914 116.419043,13.4394531 L116.387305,13.4394531 L116.387305,12.2714844 L114.870215,12.2714844 L114.870215,19 L116.450781,19 Z M132.686719,19.1523438 C134.889355,19.1523438 136.266797,18.0478516 136.266797,16.2958984 C136.266797,14.9375 135.460645,14.1630859 133.530957,13.7631836 L132.540723,13.5600586 C131.398145,13.3188477 130.941113,12.9189453 130.941113,12.296875 C130.941113,11.5288086 131.664746,11.0463867 132.680371,11.0463867 C133.727734,11.0463867 134.451367,11.5668945 134.527539,12.4301758 L136.09541,12.4301758 C136.057324,10.7924805 134.717969,9.68798828 132.693066,9.68798828 C130.70625,9.68798828 129.290723,10.7797852 129.290723,12.3920898 C129.290723,13.7314453 130.147656,14.5947266 131.982129,14.9692383 L132.966016,15.1723633 C134.159375,15.4199219 134.616406,15.8261719 134.616406,16.4863281 C134.616406,17.2480469 133.84834,17.7939453 132.743848,17.7939453 C131.60127,17.7939453 130.776074,17.2861328 130.655469,16.4418945 L129.087598,16.4418945 C129.16377,18.1176758 130.566602,19.1523438 132.686719,19.1523438 Z M140.246094,19.0317383 C140.58252,19.0317383 140.893555,19.0063477 141.064941,18.9682617 L141.064941,17.762207 C140.963379,17.78125 140.760254,17.7939453 140.614258,17.7939453 C140.055664,17.7939453 139.801758,17.5400391 139.801758,16.987793 L139.801758,13.4902344 L141.071289,13.4902344 L141.071289,12.2714844 L139.801758,12.2714844 L139.801758,10.6972656 L138.221191,10.6972656 L138.221191,12.2714844 L137.256348,12.2714844 L137.256348,13.4902344 L138.221191,13.4902344 L138.221191,17.2099609 C138.221191,18.5175781 138.79248,19.0317383 140.246094,19.0317383 Z M143.419238,11.2558594 C143.90166,11.2558594 144.28252,10.8686523 144.28252,10.3989258 C144.28252,9.92285156 143.90166,9.54199219 143.419238,9.54199219 C142.936816,9.54199219 142.549609,9.92285156 142.549609,10.3989258 C142.549609,10.8686523 142.936816,11.2558594 143.419238,11.2558594 Z M144.212695,19 L144.212695,12.2714844 L142.632129,12.2714844 L142.632129,19 L144.212695,19 Z M147.614355,19 L147.614355,16.6640625 L148.147559,16.1245117 L150.274023,19 L152.102148,19 L149.296484,15.1660156 L151.987891,12.2714844 L150.166113,12.2714844 L147.633398,15.0771484 L147.614355,15.0771484 L147.614355,9.84033203 L146.033789,9.84033203 L146.033789,19 L147.614355,19 Z M155.821191,19.1333008 C157.414453,19.1333008 158.595117,18.2573242 158.798242,16.987793 L157.319238,16.987793 C157.147852,17.5463867 156.589258,17.9145508 155.85293,17.9145508 C154.818262,17.9145508 154.158105,17.190918 154.158105,16.1118164 L154.158105,16.0166016 L158.861719,16.0166016 L158.861719,15.5024414 C158.861719,13.4584961 157.668359,12.1318359 155.757715,12.1318359 C153.815332,12.1318359 152.583887,13.534668 152.583887,15.6611328 C152.583887,17.8066406 153.802637,19.1333008 155.821191,19.1333008 Z M157.312891,14.9755859 L154.170801,14.9755859 C154.234277,14.0361328 154.875391,13.3569336 155.764062,13.3569336 C156.671777,13.3569336 157.281152,14.0234375 157.312891,14.9755859 Z M161.90791,19 L161.90791,15.0834961 C161.90791,14.1376953 162.447461,13.5600586 163.34248,13.5600586 C163.609082,13.5600586 163.850293,13.5981445 163.983594,13.6489258 L163.983594,12.2207031 C163.869336,12.1953125 163.691602,12.1572266 163.488477,12.1572266 C162.69502,12.1572266 162.104688,12.6269531 161.876172,13.4458008 L161.844434,13.4458008 L161.844434,12.2714844 L160.327344,12.2714844 L160.327344,19 L161.90791,19 Z M167.880371,19.1333008 C169.530762,19.1333008 170.69873,18.2763672 170.69873,17.0068359 C170.69873,16.0292969 170.15918,15.4897461 168.762695,15.1787109 L167.645508,14.9311523 C166.940918,14.7724609 166.661621,14.5058594 166.661621,14.1186523 C166.661621,13.6235352 167.125,13.293457 167.823242,13.293457 C168.553223,13.293457 169.003906,13.6806641 169.067383,14.2900391 L170.540039,14.2900391 C170.501953,13.0141602 169.460938,12.1318359 167.823242,12.1318359 C166.198242,12.1318359 165.125488,12.9697266 165.125488,14.2011719 C165.125488,15.1977539 165.772949,15.8325195 167.061523,16.1181641 L168.178711,16.3657227 C168.883301,16.5244141 169.124512,16.7529297 169.124512,17.1591797 C169.124512,17.6606445 168.648438,17.9780273 167.880371,17.9780273 C167.080566,17.9780273 166.629883,17.6479492 166.509277,16.9941406 L164.954102,16.9941406 C165.081055,18.2954102 166.12207,19.1333008 167.880371,19.1333008 Z" id="OpenTelergamStikers" fill="#000000" fill-rule="nonzero"></path>
                <path d="M19.3754883,21.5708008 C19.8896484,21.5708008 20.2451172,21.1708984 20.4799805,20.5615234 L24.7011719,9.52294922 C24.8027344,9.25 24.8598633,9.00878906 24.8598633,8.79931641 C24.8598633,8.31054687 24.5551758,8.00585937 24.0664062,8.00585937 C23.8569336,8.00585937 23.609375,8.06298828 23.3427734,8.16455078 L12.2661133,12.3984375 C11.7075195,12.6142578 11.2949219,12.9697266 11.2949219,13.4902344 C11.2949219,14.1123047 11.7519531,14.3725586 12.3867188,14.5629883 L16.9633789,15.9023437 L18.2963867,20.4345703 C18.4868164,21.0947266 18.7470703,21.5708008 19.3754883,21.5708008 Z M17.3950195,14.5756836 L13.7895508,13.4711914 C13.7070312,13.4458008 13.675293,13.4204102 13.675293,13.3759766 C13.675293,13.3378906 13.7006836,13.2998047 13.7768555,13.2744141 L20.5053711,10.6845703 C21.0766602,10.4624023 21.6352539,10.1958008 22.2890625,9.89746094 C21.8066406,10.2910156 21.2163086,10.7734375 20.8037109,11.1796875 L17.3950195,14.5756836 Z M19.4897461,19.1967773 C19.4453125,19.1967773 19.4199219,19.1586914 19.3945312,19.0761719 L18.2900391,15.4707031 L21.6860352,12.0620117 C22.0795898,11.6621094 22.5874023,11.0463867 22.9682617,10.5639648 C22.6699219,11.2241211 22.4033203,11.7827148 22.1811523,12.3603516 L19.5913086,19.0888672 C19.5595703,19.1586914 19.5341797,19.1967773 19.4897461,19.1967773 Z" id="Icon" fill="#000000" fill-rule="nonzero"></path>
            </g>
        </g>
    </g>
</svg>