<?xml version="1.0" encoding="UTF-8"?>
<svg width="134px" height="29px" viewBox="0 0 134 29" version="1.1" xmlns="http://www.w3.org/2000/svg" xmlns:xlink="http://www.w3.org/1999/xlink">
    <title>open-telegram-chat</title>
    <defs>
        <linearGradient x1="50%" y1="0%" x2="50%" y2="100%" id="linearGradient-1">
            <stop stop-color="#F9FBFB" offset="0%"></stop>
            <stop stop-color="#EEF2F5" offset="100%"></stop>
        </linearGradient>
    </defs>
    <g id="GitHub" stroke="none" stroke-width="1" fill="none" fill-rule="evenodd">
        <g id="Curves" transform="translate(-219.000000, -185.000000)">
            <g id="open-telegram-chat" transform="translate(219.000000, 185.000000)">
                <rect id="Rectangle" stroke="#C7C9CD" fill="url(#linearGradient-1)" x="0.5" y="0.5" width="133" height="28" rx="3"></rect>
                <path d="M37.7353516,19 L37.7353516,11.2241211 L40.4711914,11.2241211 L40.4711914,9.84033203 L33.3618164,9.84033203 L33.3618164,11.2241211 L36.0976562,11.2241211 L36.0976562,19 L37.7353516,19 Z M43.7966797,19.1333008 C45.3962891,19.1333008 46.5769531,18.2573242 46.7737305,16.987793 L45.2947266,16.987793 C45.1233398,17.5463867 44.5647461,17.9145508 43.828418,17.9145508 C42.8000977,17.9145508 42.1335938,17.190918 42.1335938,16.1118164 L42.1335938,16.0166016 L46.8435547,16.0166016 L46.8435547,15.5024414 C46.8435547,13.4584961 45.6438477,12.1318359 43.7395508,12.1318359 C41.797168,12.1318359 40.559375,13.534668 40.559375,15.6611328 C40.559375,17.8066406 41.778125,19.1333008 43.7966797,19.1333008 Z M45.2883789,14.9755859 L42.1526367,14.9755859 C42.2161133,14.0361328 42.8508789,13.3569336 43.7458984,13.3569336 C44.6472656,13.3569336 45.2566406,14.0234375 45.2883789,14.9755859 Z M48.1822266,19.0698242 C49.762793,19.0698242 50.2769531,17.8129883 50.4039062,15.8642578 L50.5625977,13.4902344 L52.4668945,13.4902344 L52.4668945,19 L54.0474609,19 L54.0474609,12.2714844 L49.1915039,12.2714844 L48.9756836,15.7817383 C48.912207,16.8989258 48.6963867,17.6860352 48.0425781,17.6860352 C47.8648437,17.6860352 47.731543,17.6542969 47.6680664,17.6352539 L47.6680664,18.9936523 C47.7505859,19.0253906 47.934668,19.0698242 48.1822266,19.0698242 Z M58.8583008,19.1333008 C60.4579102,19.1333008 61.6385742,18.2573242 61.8353516,16.987793 L60.3563477,16.987793 C60.1849609,17.5463867 59.6263672,17.9145508 58.8900391,17.9145508 C57.8617188,17.9145508 57.1952148,17.190918 57.1952148,16.1118164 L57.1952148,16.0166016 L61.9051758,16.0166016 L61.9051758,15.5024414 C61.9051758,13.4584961 60.7054688,12.1318359 58.8011719,12.1318359 C56.8587891,12.1318359 55.6209961,13.534668 55.6209961,15.6611328 C55.6209961,17.8066406 56.8397461,19.1333008 58.8583008,19.1333008 Z M60.35,14.9755859 L57.2142578,14.9755859 C57.2777344,14.0361328 57.9125,13.3569336 58.8075195,13.3569336 C59.7088867,13.3569336 60.3182617,14.0234375 60.35,14.9755859 Z M65.0529297,19 L65.0529297,13.4902344 L68.0363281,13.4902344 L68.0363281,12.2714844 L63.4723633,12.2714844 L63.4723633,19 L65.0529297,19 Z M71.1713867,21.215332 L71.1713867,17.8828125 L71.203125,17.8828125 C71.5776367,18.6381836 72.3393555,19.1079102 73.3105469,19.1079102 C74.9990234,19.1079102 76.0844727,17.78125 76.0844727,15.6357422 C76.0844727,13.4838867 74.9926758,12.1572266 73.2851562,12.1572266 C72.3076172,12.1572266 71.5522461,12.6523438 71.1650391,13.4331055 L71.1333008,13.4331055 L71.1333008,12.2714844 L69.5908203,12.2714844 L69.5908203,21.215332 L71.1713867,21.215332 Z M72.809082,17.8129883 C71.8188477,17.8129883 71.1650391,16.9560547 71.1650391,15.6357422 C71.1650391,14.328125 71.8188477,13.4584961 72.809082,13.4584961 C73.824707,13.4584961 74.4658203,14.309082 74.4658203,15.6357422 C74.4658203,16.96875 73.824707,17.8129883 72.809082,17.8129883 Z M79.6384766,19.1079102 C80.5017578,19.1079102 81.3396484,18.6572266 81.7268555,17.9272461 L81.7585938,17.9272461 L81.7585938,19 L83.2820313,19 L83.2820313,14.3662109 C83.2820313,13.0141602 82.2029297,12.1318359 80.5271484,12.1318359 C78.8132813,12.1318359 77.7405273,13.0332031 77.6707031,14.2900391 L79.1370117,14.2900391 C79.2449219,13.7314453 79.7146484,13.3696289 80.4636719,13.3696289 C81.2444336,13.3696289 81.7205078,13.7758789 81.7205078,14.4804688 L81.7205078,14.9628906 L79.9431641,15.0644531 C78.3118164,15.1660156 77.3850586,15.8833008 77.3850586,17.0766602 C77.3850586,18.2890625 78.3308594,19.1079102 79.6384766,19.1079102 Z M80.1145508,17.9145508 C79.4290039,17.9145508 78.965625,17.5654297 78.965625,17.0131836 C78.965625,16.4799805 79.4036133,16.137207 80.165332,16.0864258 L81.7205078,15.9912109 L81.7205078,16.5053711 C81.7205078,17.3178711 81.0095703,17.9145508 80.1145508,17.9145508 Z M86.6202148,19 L86.6202148,14.3979492 L86.6646484,14.3979492 L88.5625977,18.6889648 L89.6797852,18.6889648 L91.5777344,14.3979492 L91.6285156,14.3979492 L91.6285156,19 L93.1329102,19 L93.1329102,12.2714844 L91.1524414,12.2714844 L89.165625,16.96875 L89.1148438,16.96875 L87.1280273,12.2714844 L85.1158203,12.2714844 L85.1158203,19 L86.6202148,19 Z M105.426953,19 L105.426953,9.84033203 L103.789258,9.84033203 L103.789258,13.6870117 C103.465527,13.9916992 102.773633,14.3217773 101.783398,14.3217773 C100.431348,14.3217773 99.6950195,13.5473633 99.6950195,12.277832 L99.6950195,9.84033203 L98.0636719,9.84033203 L98.0636719,12.3666992 C98.0636719,14.2963867 99.2887695,15.75 101.567578,15.75 C102.602246,15.75 103.344922,15.4453125 103.706738,15.1914062 L103.789258,15.1914062 L103.789258,19 L105.426953,19 Z M109.431641,19.1079102 C110.294922,19.1079102 111.132813,18.6572266 111.52002,17.9272461 L111.551758,17.9272461 L111.551758,19 L113.075195,19 L113.075195,14.3662109 C113.075195,13.0141602 111.996094,12.1318359 110.320313,12.1318359 C108.606445,12.1318359 107.533691,13.0332031 107.463867,14.2900391 L108.930176,14.2900391 C109.038086,13.7314453 109.507813,13.3696289 110.256836,13.3696289 C111.037598,13.3696289 111.513672,13.7758789 111.513672,14.4804688 L111.513672,14.9628906 L109.736328,15.0644531 C108.10498,15.1660156 107.178223,15.8833008 107.178223,17.0766602 C107.178223,18.2890625 108.124023,19.1079102 109.431641,19.1079102 Z M109.907715,17.9145508 C109.222168,17.9145508 108.758789,17.5654297 108.758789,17.0131836 C108.758789,16.4799805 109.196777,16.137207 109.958496,16.0864258 L111.513672,15.9912109 L111.513672,16.5053711 C111.513672,17.3178711 110.802734,17.9145508 109.907715,17.9145508 Z M118.025684,19 L118.025684,13.4902344 L120.088672,13.4902344 L120.088672,12.2714844 L114.382129,12.2714844 L114.382129,13.4902344 L116.445117,13.4902344 L116.445117,19 L118.025684,19 Z" id="ТелеграмЧат" fill="#000000" fill-rule="nonzero"></path>
                <path d="M19.3754883,21.5708008 C19.8896484,21.5708008 20.2451172,21.1708984 20.4799805,20.5615234 L24.7011719,9.52294922 C24.8027344,9.25 24.8598633,9.00878906 24.8598633,8.79931641 C24.8598633,8.31054688 24.5551758,8.00585938 24.0664062,8.00585938 C23.8569336,8.00585938 23.609375,8.06298828 23.3427734,8.16455078 L12.2661133,12.3984375 C11.7075195,12.6142578 11.2949219,12.9697266 11.2949219,13.4902344 C11.2949219,14.1123047 11.7519531,14.3725586 12.3867188,14.5629883 L16.9633789,15.9023438 L18.2963867,20.4345703 C18.4868164,21.0947266 18.7470703,21.5708008 19.3754883,21.5708008 Z M17.3950195,14.5756836 L13.7895508,13.4711914 C13.7070312,13.4458008 13.675293,13.4204102 13.675293,13.3759766 C13.675293,13.3378906 13.7006836,13.2998047 13.7768555,13.2744141 L20.5053711,10.6845703 C21.0766602,10.4624023 21.6352539,10.1958008 22.2890625,9.89746094 C21.8066406,10.2910156 21.2163086,10.7734375 20.8037109,11.1796875 L17.3950195,14.5756836 Z M19.4897461,19.1967773 C19.4453125,19.1967773 19.4199219,19.1586914 19.3945312,19.0761719 L18.2900391,15.4707031 L21.6860352,12.0620117 C22.0795898,11.6621094 22.5874023,11.0463867 22.9682617,10.5639648 C22.6699219,11.2241211 22.4033203,11.7827148 22.1811523,12.3603516 L19.5913086,19.0888672 C19.5595703,19.1586914 19.5341797,19.1967773 19.4897461,19.1967773 Z" id="Icon" fill="#000000" fill-rule="nonzero"></path>
            </g>
        </g>
    </g>
</svg>