<?xml version="1.0" encoding="UTF-8"?>
<svg width="68px" height="29px" viewBox="0 0 68 29" version="1.1" xmlns="http://www.w3.org/2000/svg" xmlns:xlink="http://www.w3.org/1999/xlink">
    <title>put-star</title>
    <defs>
        <linearGradient x1="50%" y1="0%" x2="50%" y2="100%" id="linearGradient-1">
            <stop stop-color="#F9FBFB" offset="0%"></stop>
            <stop stop-color="#EEF2F5" offset="100%"></stop>
        </linearGradient>
    </defs>
    <g id="GitHub" stroke="none" stroke-width="1" fill="none" fill-rule="evenodd">
        <g id="Curves" transform="translate(-25.000000, -68.000000)">
            <g id="put-star" transform="translate(25.000000, 68.000000)">
                <rect id="Rectangle" stroke="#C7C9CD" fill="url(#linearGradient-1)" x="0.5" y="0.5" width="67" height="28" rx="3"></rect>
                <path d="M17.4438477,19 L17.4438477,15.972168 L19.3354492,15.972168 C21.1889648,15.972168 22.4521484,14.7407227 22.4521484,12.9125977 L22.4521484,12.8999023 C22.4521484,11.0654297 21.1889648,9.84033203 19.3354492,9.84033203 L15.8061523,9.84033203 L15.8061523,19 L17.4438477,19 Z M18.9291992,14.6518555 L17.4438477,14.6518555 L17.4438477,11.1796875 L18.9291992,11.1796875 C20.1035156,11.1796875 20.7890625,11.8081055 20.7890625,12.90625 L20.7890625,12.9189453 C20.7890625,14.0170898 20.1035156,14.6518555 18.9291992,14.6518555 Z M26.2283203,19.1333008 C27.2439453,19.1333008 27.9358398,18.6635742 28.2849609,17.9462891 L28.3166992,17.9462891 L28.3166992,19 L29.8972656,19 L29.8972656,12.2714844 L28.3166992,12.2714844 L28.3166992,16.1689453 C28.3166992,17.1464844 27.7390625,17.800293 26.8313477,17.800293 C25.9299805,17.800293 25.4856445,17.2607422 25.4856445,16.3085938 L25.4856445,12.2714844 L23.9050781,12.2714844 L23.9050781,16.6196289 C23.9050781,18.1811523 24.7493164,19.1333008 26.2283203,19.1333008 Z M34.1431641,19.1333008 C34.4605469,19.1333008 34.7398437,19.1015625 34.9239258,19.0761719 L34.9239258,17.8891602 C34.8160156,17.8955078 34.6954102,17.9145508 34.5430664,17.9145508 C33.9654297,17.9145508 33.6734375,17.7050781 33.6734375,17.0449219 L33.6734375,13.4902344 L34.9239258,13.4902344 L34.9239258,12.2714844 L33.6734375,12.2714844 L33.6734375,10.5639648 L32.0674805,10.5639648 L32.0674805,12.2714844 L31.115332,12.2714844 L31.115332,13.4902344 L32.0674805,13.4902344 L32.0674805,17.1782227 C32.0674805,18.5620117 32.7339844,19.1333008 34.1431641,19.1333008 Z" id="Put" fill="#000000" fill-rule="nonzero"></path>
                <path d="M53.6628782,20.6650391 C53.9431516,20.4599609 54.0046751,20.1113281 53.8337766,19.6259766 L52.4939329,15.6269531 L55.9255735,13.1660156 C56.3357297,12.8720703 56.5066282,12.5576172 56.3972532,12.2226562 C56.2878782,11.8876953 55.9665891,11.7304687 55.4607297,11.7373047 L51.2497922,11.7646484 L49.9714719,7.74511719 C49.8074094,7.25292969 49.5681516,7 49.2195188,7 C48.8640501,7 48.6247922,7.25292969 48.4607297,7.74511719 L47.1824094,11.7646484 L42.9714719,11.7373047 C42.4656126,11.7304687 42.1443235,11.8876953 42.0349485,12.2226562 C41.9187376,12.5576172 42.0964719,12.8720703 42.5066282,13.1660156 L45.9382688,15.6269531 L44.5984251,19.6259766 C44.4275266,20.1113281 44.4890501,20.4599609 44.7693235,20.6650391 C45.0495969,20.8837891 45.3982297,20.8085937 45.8152219,20.5078125 L49.2195188,18.0126953 L52.6169797,20.5078125 C53.0339719,20.8085937 53.3826047,20.8837891 53.6628782,20.6650391 Z M52.5964719,19.2773437 L49.5613157,16.9462891 C49.3357297,16.7685547 49.0964719,16.7685547 48.870886,16.9462891 L45.8357297,19.2773437 C45.8015501,19.2978516 45.7878782,19.3046875 45.7742063,19.2910156 C45.7605344,19.2705078 45.7673704,19.2705078 45.7742063,19.2294922 L47.0388547,15.6132812 C47.1345579,15.3398437 47.0935422,15.1416016 46.8406126,14.9707031 L43.6892454,12.796875 C43.6550657,12.7763672 43.6482297,12.7626953 43.6550657,12.7490234 C43.6619016,12.7285156 43.6755735,12.7285156 43.7165891,12.7285156 L47.5378782,12.8037109 C47.8318235,12.8105469 48.0027219,12.7080078 48.0847532,12.4140625 L49.1785032,8.75 C49.1853391,8.71582031 49.199011,8.70214844 49.2195188,8.70214844 C49.2331907,8.70214844 49.2468626,8.71582031 49.2536985,8.75 L50.3474485,12.4140625 C50.4294797,12.7080078 50.6003782,12.8105469 50.8943235,12.8037109 L54.7224485,12.7285156 C54.7566282,12.7285156 54.7703001,12.7285156 54.777136,12.7490234 C54.7839719,12.7626953 54.777136,12.7763672 54.7429563,12.796875 L51.5915891,14.9707031 C51.3386594,15.1416016 51.2976438,15.3398437 51.3933469,15.6132812 L52.6579954,19.2294922 C52.6648313,19.2705078 52.6716672,19.2705078 52.6579954,19.2910156 C52.6443235,19.3046875 52.6306516,19.2978516 52.5964719,19.2773437 Z" id="star" stroke="#000000" stroke-width="0.35" fill-opacity="0.87" fill="#000000" fill-rule="nonzero"></path>
            </g>
        </g>
    </g>
</svg>