<?xml version="1.0" encoding="UTF-8"?>
<svg width="151px" height="29px" viewBox="0 0 151 29" version="1.1" xmlns="http://www.w3.org/2000/svg" xmlns:xlink="http://www.w3.org/1999/xlink">
    <title>russian-comunity-libraries</title>
    <defs>
        <linearGradient x1="50%" y1="0%" x2="50%" y2="100%" id="linearGradient-1">
            <stop stop-color="#F9FBFB" offset="0%"></stop>
            <stop stop-color="#EEF2F5" offset="100%"></stop>
        </linearGradient>
    </defs>
    <g id="GitHub" stroke="none" stroke-width="1" fill="none" fill-rule="evenodd">
        <g id="Curves" transform="translate(-150.000000, -249.000000)">
            <g id="russian-comunity-libraries" transform="translate(150.000000, 249.000000)">
                <rect id="Rectangle" stroke="#C7C9CD" fill="url(#linearGradient-1)" x="0.5" y="0.5" width="150" height="28" rx="3"></rect>
                <path d="M35.5136719,19 L35.5136719,11.2304688 L39.8554688,11.2304688 L39.8554688,19 L41.4868164,19 L41.4868164,9.84033203 L33.8696289,9.84033203 L33.8696289,19 L35.5136719,19 Z M45.0852539,21.215332 L45.0852539,17.8828125 L45.1169922,17.8828125 C45.4915039,18.6381836 46.2532227,19.1079102 47.2244141,19.1079102 C48.9128906,19.1079102 49.9983398,17.78125 49.9983398,15.6357422 C49.9983398,13.4838867 48.906543,12.1572266 47.1990234,12.1572266 C46.2214844,12.1572266 45.4661133,12.6523438 45.0789063,13.4331055 L45.047168,13.4331055 L45.047168,12.2714844 L43.5046875,12.2714844 L43.5046875,21.215332 L45.0852539,21.215332 Z M46.7229492,17.8129883 C45.7327148,17.8129883 45.0789063,16.9560547 45.0789063,15.6357422 C45.0789063,14.328125 45.7327148,13.4584961 46.7229492,13.4584961 C47.7385742,13.4584961 48.3796875,14.309082 48.3796875,15.6357422 C48.3796875,16.96875 47.7385742,17.8129883 46.7229492,17.8129883 Z M54.5425781,19.1333008 C56.5166992,19.1333008 57.7989258,17.8193359 57.7989258,15.6357422 C57.7989258,13.4584961 56.5040039,12.1318359 54.5425781,12.1318359 C52.5811523,12.1318359 51.2862305,13.4648438 51.2862305,15.6357422 C51.2862305,17.8193359 52.5748047,19.1333008 54.5425781,19.1333008 Z M54.5425781,17.8828125 C53.5396484,17.8828125 52.8921875,17.0703125 52.8921875,15.6357422 C52.8921875,14.2075195 53.5459961,13.3886719 54.5425781,13.3886719 C55.5455078,13.3886719 56.1929687,14.2075195 56.1929687,15.6357422 C56.1929687,17.0703125 55.5455078,17.8828125 54.5425781,17.8828125 Z M66.2018555,19 C68.0236328,19 69.2868164,17.8574219 69.2868164,16.1625977 C69.2868164,14.4931641 67.9982422,13.3569336 66.1510742,13.3569336 L64.234082,13.3569336 L64.234082,11.2177734 L68.4171875,11.2177734 L68.4171875,9.84033203 L62.5963867,9.84033203 L62.5963867,19 L66.2018555,19 Z M65.7892578,17.6542969 L64.234082,17.6542969 L64.234082,14.6645508 L65.7829102,14.6645508 C66.9445312,14.6645508 67.6110352,15.1914062 67.6110352,16.1625977 C67.6110352,17.1274414 66.9445312,17.6542969 65.7892578,17.6542969 Z M72.605957,19 L75.5258789,14.4804688 L75.5766602,14.4804688 L75.5766602,19 L77.1318359,19 L77.1318359,12.2714844 L75.5830078,12.2714844 L72.6694336,16.7592773 L72.6186523,16.7592773 L72.6186523,12.2714844 L71.0571289,12.2714844 L71.0571289,19 L72.605957,19 Z M82.0759766,19.1333008 C84.0945313,19.1333008 85.3386719,17.8320312 85.3386719,15.7182617 C85.3386719,13.7441406 84.1707031,12.4936523 82.3489258,12.4936523 C81.2761719,12.4936523 80.4827148,12.9379883 80.0637695,13.7441406 L80.0129883,13.7441406 C80.2478516,11.9223633 80.8318359,11.1225586 82.5710938,11.0654297 L83.2249023,11.0463867 C84.0945313,11.0146484 84.7546875,10.8432617 84.8943359,10.7163086 L84.8943359,9.453125 C84.6467773,9.58642578 83.9104492,9.72607422 83.1296875,9.7578125 L82.4504883,9.77685547 C79.9368164,9.86572266 78.7625,11.3574219 78.7625,15.1152344 C78.7625,17.762207 79.9431641,19.1333008 82.0759766,19.1333008 Z M82.0569336,17.8510742 C80.996875,17.8510742 80.3811523,17.0957031 80.3811523,15.75 C80.3811523,14.4614258 81.0032227,13.7250977 82.0569336,13.7250977 C83.1042969,13.7250977 83.7200195,14.4614258 83.7200195,15.75 C83.7200195,17.0957031 83.1042969,17.8510742 82.0569336,17.8510742 Z M86.6963867,19.0698242 C88.2769531,19.0698242 88.7911133,17.8129883 88.9180664,15.8642578 L89.0767578,13.4902344 L90.9810547,13.4902344 L90.9810547,19 L92.5616211,19 L92.5616211,12.2714844 L87.7056641,12.2714844 L87.4898438,15.7817383 C87.4263672,16.8989258 87.2105469,17.6860352 86.5567383,17.6860352 C86.3790039,17.6860352 86.2457031,17.6542969 86.1822266,17.6352539 L86.1822266,18.9936523 C86.2647461,19.0253906 86.4488281,19.0698242 86.6963867,19.0698242 Z M95.9696289,19 L98.8895508,14.4804688 L98.940332,14.4804688 L98.940332,19 L100.495508,19 L100.495508,12.2714844 L98.9466797,12.2714844 L96.0331055,16.7592773 L95.9823242,16.7592773 L95.9823242,12.2714844 L94.4208008,12.2714844 L94.4208008,19 L95.9696289,19 Z M105.325391,19.1333008 C107.299512,19.1333008 108.581738,17.8193359 108.581738,15.6357422 C108.581738,13.4584961 107.286816,12.1318359 105.325391,12.1318359 C103.363965,12.1318359 102.069043,13.4648438 102.069043,15.6357422 C102.069043,17.8193359 103.357617,19.1333008 105.325391,19.1333008 Z M105.325391,17.8828125 C104.322461,17.8828125 103.675,17.0703125 103.675,15.6357422 C103.675,14.2075195 104.328809,13.3886719 105.325391,13.3886719 C106.32832,13.3886719 106.975781,14.2075195 106.975781,15.6357422 C106.975781,17.0703125 106.32832,17.8828125 105.325391,17.8828125 Z M113.151367,19 L113.151367,13.4902344 L115.214355,13.4902344 L115.214355,12.2714844 L109.507813,12.2714844 L109.507813,13.4902344 L111.570801,13.4902344 L111.570801,19 L113.151367,19 Z M119.460254,19.1333008 C121.059863,19.1333008 122.240527,18.2573242 122.437305,16.987793 L120.958301,16.987793 C120.786914,17.5463867 120.22832,17.9145508 119.491992,17.9145508 C118.463672,17.9145508 117.797168,17.190918 117.797168,16.1118164 L117.797168,16.0166016 L122.507129,16.0166016 L122.507129,15.5024414 C122.507129,13.4584961 121.307422,12.1318359 119.403125,12.1318359 C117.460742,12.1318359 116.222949,13.534668 116.222949,15.6611328 C116.222949,17.8066406 117.441699,19.1333008 119.460254,19.1333008 Z M120.951953,14.9755859 L117.816211,14.9755859 C117.879688,14.0361328 118.514453,13.3569336 119.409473,13.3569336 C120.31084,13.3569336 120.920215,14.0234375 120.951953,14.9755859 Z M125.654883,19 L125.654883,15.9912109 L125.705664,15.9912109 L128.200293,19 L130.136328,19 L127.159277,15.4135742 L130.003027,12.2714844 L128.162207,12.2714844 L125.705664,15.0771484 L125.654883,15.0771484 L125.654883,12.2714844 L124.074316,12.2714844 L124.074316,19 L125.654883,19 Z M132.941309,19 L135.86123,14.4804688 L135.912012,14.4804688 L135.912012,19 L137.467188,19 L137.467188,12.2714844 L135.918359,12.2714844 L133.004785,16.7592773 L132.954004,16.7592773 L132.954004,12.2714844 L131.39248,12.2714844 L131.39248,19 L132.941309,19 Z" id="ПроБиблиотеки" fill="#000000" fill-rule="nonzero"></path>
                <path d="M22.8637695,11.2304688 L23.6381836,10.4560547 C24.019043,10.0751953 24.0317383,9.64355469 23.6826172,9.28808594 L23.371582,8.97070313 C23.0161133,8.62158203 22.5717773,8.64697266 22.1972656,9.02148438 L21.4165039,9.78955078 L22.8637695,11.2304688 Z M23.3969727,19.1967773 C23.6064453,18.9936523 23.6064453,18.6508789 23.3969727,18.4414063 L14.3261719,9.38330078 C14.1230469,9.17382813 13.7675781,9.17382813 13.5644531,9.38330078 C13.3676758,9.58642578 13.3676758,9.93554688 13.5644531,10.1386719 L22.6416016,19.1967773 C22.8447266,19.3999023 23.1938477,19.40625 23.3969727,19.1967773 Z M20.1279297,13.9536133 L22.152832,11.9287109 L20.7119141,10.4941406 L18.6870117,12.519043 L20.1279297,13.9536133 Z M12.8979492,20.1552734 L14.5673828,19.5141602 L18.1538086,15.9277344 L16.7128906,14.4868164 L13.1328125,18.0795898 L12.4853516,19.7236328 C12.3837891,19.9902344 12.6567383,20.237793 12.8979492,20.1552734 Z" id="icon" fill="#000000" fill-rule="nonzero"></path>
            </g>
        </g>
    </g>
</svg>