<?xml version="1.0" encoding="UTF-8"?>
<svg width="69px" height="29px" viewBox="0 0 69 29" version="1.1" xmlns="http://www.w3.org/2000/svg" xmlns:xlink="http://www.w3.org/1999/xlink">
    <title>russian-comunity-chat</title>
    <defs>
        <linearGradient x1="50%" y1="0%" x2="50%" y2="100%" id="linearGradient-1">
            <stop stop-color="#F9FBFB" offset="0%"></stop>
            <stop stop-color="#EEF2F5" offset="100%"></stop>
        </linearGradient>
    </defs>
    <g id="GitHub" stroke="none" stroke-width="1" fill="none" fill-rule="evenodd">
        <g id="Curves" transform="translate(-310.000000, -249.000000)">
            <g id="russian-comunity-chat" transform="translate(310.000000, 249.000000)">
                <rect id="Rectangle" stroke="#C7C9CD" fill="url(#linearGradient-1)" x="0.5" y="0.5" width="68" height="28" rx="3"></rect>
                <path d="M41.0869141,19 L41.0869141,9.84033203 L39.4492188,9.84033203 L39.4492188,13.6870117 C39.1254883,13.9916992 38.4335938,14.3217773 37.4433594,14.3217773 C36.0913086,14.3217773 35.3549805,13.5473633 35.3549805,12.277832 L35.3549805,9.84033203 L33.7236328,9.84033203 L33.7236328,12.3666992 C33.7236328,14.2963867 34.9487305,15.75 37.2275391,15.75 C38.262207,15.75 39.0048828,15.4453125 39.3666992,15.1914062 L39.4492188,15.1914062 L39.4492188,19 L41.0869141,19 Z M45.0916016,19.1079102 C45.9548828,19.1079102 46.7927734,18.6572266 47.1799805,17.9272461 L47.2117188,17.9272461 L47.2117188,19 L48.7351563,19 L48.7351563,14.3662109 C48.7351563,13.0141602 47.6560547,12.1318359 45.9802734,12.1318359 C44.2664063,12.1318359 43.1936523,13.0332031 43.1238281,14.2900391 L44.5901367,14.2900391 C44.6980469,13.7314453 45.1677734,13.3696289 45.9167969,13.3696289 C46.6975586,13.3696289 47.1736328,13.7758789 47.1736328,14.4804688 L47.1736328,14.9628906 L45.3962891,15.0644531 C43.7649414,15.1660156 42.8381836,15.8833008 42.8381836,17.0766602 C42.8381836,18.2890625 43.7839844,19.1079102 45.0916016,19.1079102 Z M45.5676758,17.9145508 C44.8821289,17.9145508 44.41875,17.5654297 44.41875,17.0131836 C44.41875,16.4799805 44.8567383,16.137207 45.618457,16.0864258 L47.1736328,15.9912109 L47.1736328,16.5053711 C47.1736328,17.3178711 46.4626953,17.9145508 45.5676758,17.9145508 Z M53.6856445,19 L53.6856445,13.4902344 L55.7486328,13.4902344 L55.7486328,12.2714844 L50.0420898,12.2714844 L50.0420898,13.4902344 L52.1050781,13.4902344 L52.1050781,19 L53.6856445,19 Z" id="Чат" fill="#000000" fill-rule="nonzero"></path>
                <path d="M15.7451172,21.1074219 C16.0201823,21.1074219 16.3724772,21.0280762 16.802002,20.8693848 C17.2315267,20.7106934 17.6832682,20.5022786 18.1572266,20.2441406 C18.6311849,19.9860026 19.0776367,19.7088216 19.496582,19.4125977 C20.3387044,19.4295247 21.1311035,19.3522949 21.8737793,19.1809082 C22.6164551,19.0095215 23.2935384,18.7587891 23.9050293,18.4287109 C24.5165202,18.0986328 25.0423177,17.7019043 25.4824219,17.2385254 C25.922526,16.7751465 26.2631836,16.2609863 26.5043945,15.6960449 C26.7456055,15.1311035 26.8662109,14.5291341 26.8662109,13.8901367 C26.8662109,13.1241862 26.6884766,12.406901 26.3330078,11.7382812 C25.9775391,11.0696615 25.4845378,10.4814453 24.8540039,9.97363281 C24.2234701,9.46582031 23.4903158,9.0690918 22.654541,8.78344727 C21.8187663,8.49780273 20.9226888,8.35498047 19.9663086,8.35498047 C19.0141602,8.35498047 18.1212565,8.49780273 17.2875977,8.78344727 C16.4539388,9.0690918 15.7207845,9.46582031 15.0881348,9.97363281 C14.455485,10.4814453 13.9614258,11.0696615 13.605957,11.7382812 C13.2504883,12.406901 13.0727539,13.1241862 13.0727539,13.8901367 C13.0727539,14.5460612 13.2028809,15.1702474 13.4631348,15.7626953 C13.7233887,16.3551432 14.0883789,16.8872884 14.5581055,17.3591309 C15.027832,17.8309733 15.5758464,18.2171224 16.2021484,18.5175781 C16.117513,18.6826172 16.0127767,18.8624674 15.8879395,19.0571289 C15.7631022,19.2517904 15.6393229,19.4379883 15.5166016,19.6157227 C15.3938802,19.793457 15.2880859,19.9394531 15.1992188,20.0537109 C15.0807292,20.2102865 15.0246582,20.3710938 15.0310059,20.5361328 C15.0373535,20.7011719 15.102946,20.8376465 15.2277832,20.9455566 C15.3526204,21.0534668 15.5250651,21.1074219 15.7451172,21.1074219 Z M16.3703613,19.9807129 C16.3597819,19.9659017 16.3650716,19.9436849 16.3862305,19.9140625 C16.5470378,19.719401 16.726888,19.4866536 16.9257812,19.2158203 C17.1246745,18.944987 17.2770182,18.7101237 17.3828125,18.5112305 C17.4716797,18.3504232 17.4981283,18.2012533 17.4621582,18.0637207 C17.4261882,17.9261882 17.3129883,17.8129883 17.1225586,17.7241211 C16.5004883,17.4363607 15.9715169,17.0946452 15.5356445,16.6989746 C15.0997721,16.303304 14.7675781,15.8684896 14.5390625,15.3945312 C14.3105469,14.9205729 14.1962891,14.4191081 14.1962891,13.8901367 C14.1962891,13.2849935 14.344401,12.7147624 14.640625,12.1794434 C14.936849,11.6441243 15.3483887,11.1733398 15.8752441,10.7670898 C16.4020996,10.3608398 17.0157064,10.043457 17.7160645,9.81494141 C18.4164225,9.58642578 19.1665039,9.47216797 19.9663086,9.47216797 C20.7745768,9.47216797 21.527832,9.58642578 22.2260742,9.81494141 C22.9243164,10.043457 23.5368652,10.3608398 24.0637207,10.7670898 C24.5905762,11.1733398 25.0021159,11.6441243 25.2983398,12.1794434 C25.5945638,12.7147624 25.7426758,13.2849935 25.7426758,13.8901367 C25.7426758,14.4995117 25.5945638,15.0708008 25.2983398,15.6040039 C25.0021159,16.137207 24.5905762,16.6069336 24.0637207,17.0131836 C23.5368652,17.4194336 22.9243164,17.7378743 22.2260742,17.9685059 C21.527832,18.1991374 20.7745768,18.3144531 19.9663086,18.3144531 C19.9112956,18.3144531 19.8404134,18.3123372 19.7536621,18.3081055 C19.6669108,18.3038737 19.5664062,18.3017578 19.4521484,18.3017578 C19.3251953,18.297526 19.2098796,18.316569 19.1062012,18.3588867 C19.0025228,18.4012044 18.8914388,18.4689128 18.7729492,18.5620117 C18.5317383,18.7397461 18.2630208,18.9248861 17.9667969,19.1174316 C17.6705729,19.3099772 17.3849284,19.4845378 17.1098633,19.6411133 C16.8347982,19.7976888 16.6083984,19.9119466 16.4306641,19.9838867 C16.4010417,19.996582 16.3809408,19.9955241 16.3703613,19.9807129 Z" id="􀌤" stroke="#000000" stroke-width="0.2" fill="#000000" fill-rule="nonzero"></path>
            </g>
        </g>
    </g>
</svg>