<?xml version="1.0" encoding="UTF-8"?>
<svg width="116px" height="29px" viewBox="0 0 116 29" version="1.1" xmlns="http://www.w3.org/2000/svg" xmlns:xlink="http://www.w3.org/1999/xlink">
    <title>russian-comunity-tutorials</title>
    <defs>
        <linearGradient x1="50%" y1="0%" x2="50%" y2="100%" id="linearGradient-1">
            <stop stop-color="#F9FBFB" offset="0%"></stop>
            <stop stop-color="#EEF2F5" offset="100%"></stop>
        </linearGradient>
    </defs>
    <g id="GitHub" stroke="none" stroke-width="1" fill="none" fill-rule="evenodd">
        <g id="Curves" transform="translate(-25.000000, -249.000000)">
            <g id="russian-comunity-tutorials" transform="translate(25.000000, 249.000000)">
                <rect id="Rectangle" stroke="#C7C9CD" fill="url(#linearGradient-1)" x="0.5" y="0.5" width="115" height="28" rx="3"></rect>
                <path d="M37.7353516,19 L37.7353516,11.2241211 L40.4711914,11.2241211 L40.4711914,9.84033203 L33.3618164,9.84033203 L33.3618164,11.2241211 L36.0976562,11.2241211 L36.0976562,19 L37.7353516,19 Z M42.0510742,21.5009766 C43.587207,21.5009766 44.3298828,20.9360352 44.9075195,19.2666016 L47.3386719,12.2714844 L45.6755859,12.2714844 L44.0886719,17.6542969 L44.0632813,17.6542969 L42.4763672,12.2714844 L40.7498047,12.2714844 L43.1428711,19.0063477 C43.144987,19.0126953 43.1358181,19.0543077 43.1226526,19.1076751 L43.0784541,19.279532 C43.0645833,19.3328993 43.0540039,19.3745117 43.0540039,19.3808594 C42.8762695,20.0029297 42.5398438,20.2504883 41.8860352,20.2504883 C41.7908203,20.2504883 41.5115234,20.2441406 41.4353516,20.2250977 L41.4353516,21.4755859 C41.5115234,21.4946289 41.962207,21.5009766 42.0510742,21.5009766 Z M51.8575195,19 L51.8575195,13.4902344 L53.9205078,13.4902344 L53.9205078,12.2714844 L48.2139648,12.2714844 L48.2139648,13.4902344 L50.2769531,13.4902344 L50.2769531,19 L51.8575195,19 Z M58.1854492,19.1333008 C60.1595703,19.1333008 61.4417969,17.8193359 61.4417969,15.6357422 C61.4417969,13.4584961 60.146875,12.1318359 58.1854492,12.1318359 C56.2240234,12.1318359 54.9291016,13.4648438 54.9291016,15.6357422 C54.9291016,17.8193359 56.2176758,19.1333008 58.1854492,19.1333008 Z M58.1854492,17.8828125 C57.1825195,17.8828125 56.5350586,17.0703125 56.5350586,15.6357422 C56.5350586,14.2075195 57.1888672,13.3886719 58.1854492,13.3886719 C59.1883789,13.3886719 59.8358398,14.2075195 59.8358398,15.6357422 C59.8358398,17.0703125 59.1883789,17.8828125 58.1854492,17.8828125 Z M64.5958984,21.215332 L64.5958984,17.8828125 L64.6276367,17.8828125 C65.0021484,18.6381836 65.7638672,19.1079102 66.7350586,19.1079102 C68.4235352,19.1079102 69.5089844,17.78125 69.5089844,15.6357422 C69.5089844,13.4838867 68.4171875,12.1572266 66.709668,12.1572266 C65.7321289,12.1572266 64.9767578,12.6523438 64.5895508,13.4331055 L64.5578125,13.4331055 L64.5578125,12.2714844 L63.015332,12.2714844 L63.015332,21.215332 L64.5958984,21.215332 Z M66.2335937,17.8129883 C65.2433594,17.8129883 64.5895508,16.9560547 64.5895508,15.6357422 C64.5895508,14.328125 65.2433594,13.4584961 66.2335937,13.4584961 C67.2492187,13.4584961 67.890332,14.309082 67.890332,15.6357422 C67.890332,16.96875 67.2492187,17.8129883 66.2335937,17.8129883 Z M72.6313477,19 L75.5512695,14.4804688 L75.6020508,14.4804688 L75.6020508,19 L77.1572266,19 L77.1572266,12.2714844 L75.6083984,12.2714844 L72.6948242,16.7592773 L72.644043,16.7592773 L72.644043,12.2714844 L71.0825195,12.2714844 L71.0825195,19 L72.6313477,19 Z M80.996875,19.1079102 C81.8601563,19.1079102 82.6980469,18.6572266 83.0852539,17.9272461 L83.1169922,17.9272461 L83.1169922,19 L84.6404297,19 L84.6404297,14.3662109 C84.6404297,13.0141602 83.5613281,12.1318359 81.8855469,12.1318359 C80.1716797,12.1318359 79.0989258,13.0332031 79.0291016,14.2900391 L80.4954102,14.2900391 C80.6033203,13.7314453 81.0730469,13.3696289 81.8220703,13.3696289 C82.602832,13.3696289 83.0789063,13.7758789 83.0789063,14.4804688 L83.0789063,14.9628906 L81.3015625,15.0644531 C79.6702148,15.1660156 78.743457,15.8833008 78.743457,17.0766602 C78.743457,18.2890625 79.6892578,19.1079102 80.996875,19.1079102 Z M81.4729492,17.9145508 C80.7874023,17.9145508 80.3240234,17.5654297 80.3240234,17.0131836 C80.3240234,16.4799805 80.7620117,16.137207 81.5237305,16.0864258 L83.0789063,15.9912109 L83.0789063,16.5053711 C83.0789063,17.3178711 82.3679688,17.9145508 81.4729492,17.9145508 Z M86.4805664,19.0698242 C88.0611328,19.0698242 88.575293,17.8129883 88.7022461,15.8642578 L88.8609375,13.4902344 L90.7652344,13.4902344 L90.7652344,19 L92.3458008,19 L92.3458008,12.2714844 L87.4898438,12.2714844 L87.2740234,15.7817383 C87.2105469,16.8989258 86.9947266,17.6860352 86.340918,17.6860352 C86.1631836,17.6860352 86.0298828,17.6542969 85.9664063,17.6352539 L85.9664063,18.9936523 C86.0489258,19.0253906 86.2330078,19.0698242 86.4805664,19.0698242 Z M101.949121,19 L101.949121,12.2714844 L100.38125,12.2714844 L100.38125,19 L101.949121,19 Z M97.0804688,19 C98.6483398,19 99.6576172,18.0859375 99.6576172,16.6450195 C99.6576172,15.2041016 98.6483398,14.2900391 97.0804688,14.2900391 L95.7855469,14.2900391 L95.7855469,12.2714844 L94.2049805,12.2714844 L94.2049805,19 L97.0804688,19 Z M96.8773438,17.7875977 L95.7855469,17.7875977 L95.7855469,15.4897461 L96.8773438,15.4897461 C97.6073242,15.4897461 98.0897461,15.9467773 98.0897461,16.6386719 C98.0897461,17.3242188 97.6136719,17.7875977 96.8773438,17.7875977 Z" id="Туториалы" fill="#000000" fill-rule="nonzero"></path>
                <path d="M24.3330078,20.237793 C24.8027344,20.237793 25.234375,19.9902344 25.234375,19.3300781 L25.234375,10.487793 C24.809082,9.56738281 23.3110352,8.60253906 21.4638672,8.60253906 C20.0927734,8.60253906 18.9755859,9.16113281 18.4233398,9.77685547 C17.8774414,9.16113281 16.7602539,8.60253906 15.3891602,8.60253906 C13.5419922,8.60253906 12.0439453,9.56738281 11.6186523,10.487793 L11.6186523,19.3300781 C11.6186523,19.9902344 12.050293,20.237793 12.5200195,20.237793 C12.862793,20.237793 13.065918,20.1362305 13.2817383,19.9775391 C13.637207,19.6855469 14.3037109,19.2983398 15.3891602,19.2983398 C16.4746094,19.2983398 17.2363281,19.6791992 17.5600586,19.9394531 C17.7695312,20.0917969 18.0043945,20.237793 18.4233398,20.237793 C18.8422852,20.237793 19.0834961,20.0791016 19.2929688,19.9394531 C19.6293945,19.6918945 20.378418,19.2983398 21.4638672,19.2983398 C22.5493164,19.2983398 23.2158203,19.6855469 23.5712891,19.9775391 C23.7871094,20.1362305 23.9902344,20.237793 24.3330078,20.237793 Z M13.0976562,18.5556641 L13.0976562,10.9765625 C13.2753906,10.5893555 14.1132812,9.96728516 15.3891602,9.96728516 C16.6586914,9.96728516 17.534668,10.5957031 17.6870117,10.9765625 L17.6870117,18.5366211 C17.1030273,18.1176758 16.2651367,17.9145508 15.3891602,17.9145508 C14.5068359,17.9145508 13.6879883,18.1176758 13.0976562,18.5556641 Z M23.7490234,18.5556641 C23.1650391,18.1176758 22.3461914,17.9145508 21.4638672,17.9145508 C20.5878906,17.9145508 19.75,18.1176758 19.1660156,18.5366211 L19.1660156,10.9765625 C19.3183594,10.5957031 20.1879883,9.96728516 21.4638672,9.96728516 C22.7397461,9.96728516 23.5776367,10.5893555 23.7490234,10.9765625 L23.7490234,18.5556641 Z" id="icon" fill="#000000" fill-rule="nonzero"></path>
            </g>
        </g>
    </g>
</svg>