<?xml version="1.0" encoding="UTF-8"?>
<svg width="135px" height="29px" viewBox="0 0 135 29" version="1.1" xmlns="http://www.w3.org/2000/svg" xmlns:xlink="http://www.w3.org/1999/xlink">
    <title>video-preview</title>
    <defs>
        <linearGradient x1="50%" y1="0%" x2="50%" y2="100%" id="linearGradient-1">
            <stop stop-color="#F9FBFB" offset="0%"></stop>
            <stop stop-color="#EEF2F5" offset="100%"></stop>
        </linearGradient>
    </defs>
    <g id="GitHub" stroke="none" stroke-width="1" fill="none" fill-rule="evenodd">
        <g id="Curves" transform="translate(-25.000000, -107.000000)">
            <g id="video-preview" transform="translate(25.000000, 107.000000)">
                <rect id="Rectangle" stroke="#C7C9CD" fill="url(#linearGradient-1)" x="0.5" y="0.5" width="134" height="28" rx="3"></rect>
                <path d="M38.2431641,19 L41.4233398,9.84033203 L39.6396484,9.84033203 L37.3100586,17.2543945 L37.2783203,17.2543945 L34.9550781,9.84033203 L33.1713867,9.84033203 L36.3452148,19 L38.2431641,19 Z M43.403125,11.3066406 C43.8982422,11.3066406 44.2791016,10.9130859 44.2791016,10.4433594 C44.2791016,9.9609375 43.8982422,9.57373047 43.403125,9.57373047 C42.9080078,9.57373047 42.5208008,9.9609375 42.5208008,10.4433594 C42.5208008,10.9130859 42.9080078,11.3066406 43.403125,11.3066406 Z M44.1902344,19 L44.1902344,12.2714844 L42.609668,12.2714844 L42.609668,19 L44.1902344,19 Z M48.4805664,19.1333008 C49.4517578,19.1333008 50.1944336,18.6508789 50.575293,17.8574219 L50.6133789,17.8574219 L50.6133789,19 L52.1939453,19 L52.1939453,9.84033203 L50.6133789,9.84033203 L50.6133789,13.4267578 L50.575293,13.4267578 C50.1944336,12.6206055 49.4263672,12.1318359 48.4742187,12.1318359 C46.7857422,12.1318359 45.700293,13.4584961 45.700293,15.6293945 L45.700293,15.6357422 C45.700293,17.800293 46.7793945,19.1333008 48.4805664,19.1333008 Z M48.9566406,17.800293 C47.9410156,17.800293 47.3125977,16.9750977 47.3125977,15.6357422 L47.3125977,15.6293945 C47.3125977,14.2900391 47.9473633,13.4648438 48.9566406,13.4648438 C49.927832,13.4648438 50.6133789,14.3154297 50.6133789,15.6293945 L50.6133789,15.6357422 C50.6133789,16.9560547 49.9341797,17.800293 48.9566406,17.800293 Z M56.9286133,19.1333008 C58.6869141,19.1333008 59.6771484,18.0922852 59.8866211,17.0576172 L59.9056641,16.987793 L58.4266602,16.987793 L58.4139648,17.0322266 C58.2616211,17.4829102 57.7474609,17.9018555 56.9603516,17.9018555 C55.9320312,17.9018555 55.2845703,17.2036133 55.2591797,16.0229492 L59.9691406,16.0229492 L59.9691406,15.5151367 C59.9691406,13.4838867 58.7757812,12.1318359 56.8524414,12.1318359 C54.9291016,12.1318359 53.6913086,13.5283203 53.6913086,15.6484375 L53.6913086,15.6547852 C53.6913086,17.7939453 54.9100586,19.1333008 56.9286133,19.1333008 Z M58.4330078,14.9692383 L55.2782227,14.9692383 C55.4051758,13.9345703 56.0335937,13.3696289 56.8714844,13.3696289 C57.709375,13.3696289 58.31875,13.902832 58.4330078,14.9692383 Z M64.4118164,19.1333008 C66.3859375,19.1333008 67.6681641,17.8193359 67.6681641,15.6357422 L67.6681641,15.6230469 C67.6681641,13.4521484 66.3668945,12.1318359 64.4054687,12.1318359 C62.4503906,12.1318359 61.1554687,13.4648438 61.1554687,15.6230469 L61.1554687,15.6357422 C61.1554687,17.8129883 62.4313477,19.1333008 64.4118164,19.1333008 Z M64.4181641,17.8574219 C63.4088867,17.8574219 62.7677734,17.0512695 62.7677734,15.6357422 L62.7677734,15.6230469 C62.7677734,14.2265625 63.421582,13.4140625 64.4054687,13.4140625 C65.4083984,13.4140625 66.0558594,14.2202148 66.0558594,15.6230469 L66.0558594,15.6357422 C66.0558594,17.0449219 65.4147461,17.8574219 64.4181641,17.8574219 Z M73.9827148,19 L73.9827148,15.972168 L75.8743164,15.972168 C77.727832,15.972168 78.9910156,14.7407227 78.9910156,12.9125977 L78.9910156,12.8999023 C78.9910156,11.0654297 77.727832,9.84033203 75.8743164,9.84033203 L72.3450195,9.84033203 L72.3450195,19 L73.9827148,19 Z M75.4680664,14.6518555 L73.9827148,14.6518555 L73.9827148,11.1796875 L75.4680664,11.1796875 C76.6423828,11.1796875 77.3279297,11.8081055 77.3279297,12.90625 L77.3279297,12.9189453 C77.3279297,14.0170898 76.6423828,14.6518555 75.4680664,14.6518555 Z M82.05625,19 L82.05625,15.0581055 C82.05625,14.1123047 82.5958008,13.534668 83.4908203,13.534668 C83.7574219,13.534668 83.9986328,13.5727539 84.1319336,13.6235352 L84.1319336,12.1953125 C84.0113281,12.1635742 83.8272461,12.1318359 83.6304688,12.1318359 C82.8370117,12.1318359 82.2466797,12.6079102 82.0435547,13.3950195 L82.0118164,13.3950195 L82.0118164,12.2714844 L80.4756836,12.2714844 L80.4756836,19 L82.05625,19 Z M88.0985352,19.1333008 C89.8568359,19.1333008 90.8470703,18.0922852 91.056543,17.0576172 L91.0755859,16.987793 L89.596582,16.987793 L89.5838867,17.0322266 C89.431543,17.4829102 88.9173828,17.9018555 88.1302734,17.9018555 C87.1019531,17.9018555 86.4544922,17.2036133 86.4291016,16.0229492 L91.1390625,16.0229492 L91.1390625,15.5151367 C91.1390625,13.4838867 89.9457031,12.1318359 88.0223633,12.1318359 C86.0990234,12.1318359 84.8612305,13.5283203 84.8612305,15.6484375 L84.8612305,15.6547852 C84.8612305,17.7939453 86.0799805,19.1333008 88.0985352,19.1333008 Z M89.6029297,14.9692383 L86.4481445,14.9692383 C86.5750977,13.9345703 87.2035156,13.3696289 88.0414063,13.3696289 C88.8792969,13.3696289 89.4886719,13.902832 89.6029297,14.9692383 Z M95.9054688,19 L98.2731445,12.2714844 L96.6227539,12.2714844 L95.0675781,17.5336914 L95.0294922,17.5336914 L93.4679688,12.2714844 L91.7858398,12.2714844 L94.1662109,19 L95.9054688,19 Z M100.291016,11.3066406 C100.786133,11.3066406 101.166992,10.9130859 101.166992,10.4433594 C101.166992,9.9609375 100.786133,9.57373047 100.291016,9.57373047 C99.7958984,9.57373047 99.4086914,9.9609375 99.4086914,10.4433594 C99.4086914,10.9130859 99.7958984,11.3066406 100.291016,11.3066406 Z M101.078125,19 L101.078125,12.2714844 L99.4975586,12.2714844 L99.4975586,19 L101.078125,19 Z M105.825488,19.1333008 C107.583789,19.1333008 108.574023,18.0922852 108.783496,17.0576172 L108.802539,16.987793 L107.323535,16.987793 L107.31084,17.0322266 C107.158496,17.4829102 106.644336,17.9018555 105.857227,17.9018555 C104.828906,17.9018555 104.181445,17.2036133 104.156055,16.0229492 L108.866016,16.0229492 L108.866016,15.5151367 C108.866016,13.4838867 107.672656,12.1318359 105.749316,12.1318359 C103.825977,12.1318359 102.588184,13.5283203 102.588184,15.6484375 L102.588184,15.6547852 C102.588184,17.7939453 103.806934,19.1333008 105.825488,19.1333008 Z M107.329883,14.9692383 L104.175098,14.9692383 C104.302051,13.9345703 104.930469,13.3696289 105.768359,13.3696289 C106.60625,13.3696289 107.215625,13.902832 107.329883,14.9692383 Z M113.276953,19 L114.597266,14.0805664 L114.629004,14.0805664 L115.955664,19 L117.61875,19 L119.440527,12.2714844 L117.879004,12.2714844 L116.742773,17.4384766 L116.704688,17.4384766 L115.390723,12.2714844 L113.873633,12.2714844 L112.559668,17.4384766 L112.52793,17.4384766 L111.391699,12.2714844 L109.804785,12.2714844 L111.626563,19 L113.276953,19 Z" id="VideoPreview" fill="#000000" fill-rule="nonzero"></path>
                <path d="M18.7695312,21.0566406 C22.4067383,21.0566406 25.402832,18.0541992 25.402832,14.4169922 C25.402832,10.7797852 22.4003906,7.78369141 18.7695312,7.78369141 C15.1323242,7.78369141 12.1362305,10.7797852 12.1362305,14.4169922 C12.1362305,18.0541992 15.1323242,21.0566406 18.7695312,21.0566406 Z M18.7695312,19.5649414 C15.9194336,19.5649414 13.6342773,17.2670898 13.6342773,14.4169922 C13.6342773,11.5668945 15.9130859,9.27539062 18.7695312,9.27539062 C21.6196289,9.27539062 23.9111328,11.5668945 23.9174805,14.4169922 C23.9174805,17.2670898 21.6196289,19.5649414 18.7695312,19.5649414 Z M17.5698242,16.9370117 L21.2514648,14.7851562 C21.5244141,14.6264648 21.5180664,14.2329102 21.2514648,14.0742188 L17.5698242,11.909668 C17.2841797,11.7446289 16.9160156,11.890625 16.9160156,12.2080078 L16.9160156,16.6450195 C16.9160156,16.9624023 17.2651367,17.1147461 17.5698242,16.9370117 Z" id="play" fill="#000000" fill-rule="nonzero"></path>
            </g>
        </g>
    </g>
</svg>