<?xml version="1.0" encoding="UTF-8"?>
<svg width="120px" height="29px" viewBox="0 0 120 29" version="1.1" xmlns="http://www.w3.org/2000/svg" xmlns:xlink="http://www.w3.org/1999/xlink">
    <title>xcode-shop</title>
    <defs>
        <linearGradient x1="50%" y1="0%" x2="50%" y2="100%" id="linearGradient-1">
            <stop stop-color="#F9FBFB" offset="0%"></stop>
            <stop stop-color="#EEF2F5" offset="100%"></stop>
        </linearGradient>
    </defs>
    <g id="GitHub" stroke="none" stroke-width="1" fill="none" fill-rule="evenodd">
        <g id="Curves" transform="translate(-264.000000, -68.000000)">
            <g id="xcode-shop" transform="translate(264.000000, 68.000000)">
                <rect id="Rectangle" stroke="#C7C9CD" fill="url(#linearGradient-1)" x="0.5" y="0.5" width="119" height="28" rx="3"></rect>
                <path d="M35.0629883,19 L37.246582,15.6357422 L37.2973633,15.6357422 L39.4555664,19 L41.3408203,19 L38.3383789,14.4487305 L38.3383789,14.4042969 L41.3916016,9.84033203 L39.5571289,9.84033203 L37.4116211,13.2807617 L37.3608398,13.2807617 L35.2407227,9.84033203 L33.3046875,9.84033203 L36.2626953,14.3662109 L36.2626953,14.4106445 L33.2792969,19 L35.0629883,19 Z M45.2439453,19.1333008 C46.9324219,19.1333008 48.094043,18.1430664 48.2209961,16.6386719 L46.7292969,16.6386719 C46.5833008,17.4003906 46.062793,17.8574219 45.2629883,17.8574219 C44.2600586,17.8574219 43.6125977,17.0449219 43.6125977,15.6357422 C43.6125977,14.2519531 44.2537109,13.4140625 45.250293,13.4140625 C46.0945313,13.4140625 46.5959961,13.9536133 46.7229492,14.6708984 L48.2146484,14.6708984 C48.1067383,13.2553711 47.0085938,12.1318359 45.23125,12.1318359 C43.2761719,12.1318359 42.0066406,13.4838867 42.0066406,15.6357422 C42.0066406,17.8193359 43.2761719,19.1333008 45.2439453,19.1333008 Z M52.5875,19.1333008 C54.5616211,19.1333008 55.8438477,17.8193359 55.8438477,15.6357422 C55.8438477,13.4584961 54.5489258,12.1318359 52.5875,12.1318359 C50.6260742,12.1318359 49.3311523,13.4648438 49.3311523,15.6357422 C49.3311523,17.8193359 50.6133789,19.1333008 52.5875,19.1333008 Z M52.5875,17.8828125 C51.5845703,17.8828125 50.9371094,17.0703125 50.9371094,15.6357422 C50.9371094,14.2075195 51.590918,13.3886719 52.5875,13.3886719 C53.5904297,13.3886719 54.2378906,14.2075195 54.2378906,15.6357422 C54.2378906,17.0703125 53.5904297,17.8828125 52.5875,17.8828125 Z M59.8231445,19.1079102 C60.8070312,19.1079102 61.5814453,18.6064453 61.9496094,17.8510742 L61.975,17.8510742 L61.975,19 L63.5238281,19 L63.5238281,9.84033203 L61.9432617,9.84033203 L61.9432617,13.4013672 L61.9051758,13.4013672 C61.549707,12.6586914 60.7879883,12.1572266 59.8231445,12.1572266 C58.1283203,12.1572266 57.0301758,13.5029297 57.0301758,15.6293945 C57.0301758,17.7685547 58.1283203,19.1079102 59.8231445,19.1079102 Z M60.2992187,17.8129883 C59.2772461,17.8129883 58.6488281,16.9750977 58.6488281,15.6357422 C58.6488281,14.3027344 59.2835937,13.4584961 60.2992187,13.4584961 C61.2958008,13.4584961 61.9496094,14.3154297 61.9496094,15.6357422 C61.9496094,16.96875 61.2958008,17.8129883 60.2992187,17.8129883 Z M68.2584961,19.1333008 C69.8517578,19.1333008 71.0324219,18.2573242 71.2355469,16.987793 L69.756543,16.987793 C69.5851562,17.5463867 69.0265625,17.9145508 68.2902344,17.9145508 C67.2555664,17.9145508 66.5954102,17.190918 66.5954102,16.1118164 L66.5954102,16.0166016 L71.2990234,16.0166016 L71.2990234,15.5024414 C71.2990234,13.4584961 70.1056641,12.1318359 68.1950195,12.1318359 C66.2526367,12.1318359 65.0211914,13.534668 65.0211914,15.6611328 C65.0211914,17.8066406 66.2399414,19.1333008 68.2584961,19.1333008 Z M69.7501953,14.9755859 L66.6081055,14.9755859 C66.671582,14.0361328 67.3126953,13.3569336 68.2013672,13.3569336 C69.109082,13.3569336 69.718457,14.0234375 69.7501953,14.9755859 Z M79.1941406,19.1523438 C81.3967773,19.1523438 82.7742188,18.0478516 82.7742188,16.2958984 C82.7742188,14.9375 81.9680664,14.1630859 80.0383789,13.7631836 L79.0481445,13.5600586 C77.9055664,13.3188477 77.4485352,12.9189453 77.4485352,12.296875 C77.4485352,11.5288086 78.172168,11.0463867 79.187793,11.0463867 C80.2351563,11.0463867 80.9587891,11.5668945 81.0349609,12.4301758 L82.602832,12.4301758 C82.5647461,10.7924805 81.2253906,9.68798828 79.2004883,9.68798828 C77.2136719,9.68798828 75.7981445,10.7797852 75.7981445,12.3920898 C75.7981445,13.7314453 76.6550781,14.5947266 78.4895508,14.9692383 L79.4734375,15.1723633 C80.6667969,15.4199219 81.1238281,15.8261719 81.1238281,16.4863281 C81.1238281,17.2480469 80.3557617,17.7939453 79.2512695,17.7939453 C78.1086914,17.7939453 77.2834961,17.2861328 77.1628906,16.4418945 L75.5950195,16.4418945 C75.6711914,18.1176758 77.0740234,19.1523438 79.1941406,19.1523438 Z M85.915625,19 L85.915625,15.1342773 C85.915625,14.144043 86.4932617,13.4838867 87.4454102,13.4838867 C88.3594727,13.4838867 88.8291992,14.0488281 88.8291992,14.9882812 L88.8291992,19 L90.4097656,19 L90.4097656,14.6645508 C90.4097656,13.1220703 89.5401367,12.1445312 88.0547852,12.1445312 C87.0328125,12.1445312 86.2901367,12.6079102 85.9283203,13.4267578 L85.896582,13.4267578 L85.896582,9.84033203 L84.3350586,9.84033203 L84.3350586,19 L85.915625,19 Z M95.1,19.1333008 C97.0741211,19.1333008 98.3563477,17.8193359 98.3563477,15.6357422 C98.3563477,13.4584961 97.0614258,12.1318359 95.1,12.1318359 C93.1385742,12.1318359 91.8436523,13.4648438 91.8436523,15.6357422 C91.8436523,17.8193359 93.1258789,19.1333008 95.1,19.1333008 Z M95.1,17.8828125 C94.0970703,17.8828125 93.4496094,17.0703125 93.4496094,15.6357422 C93.4496094,14.2075195 94.103418,13.3886719 95.1,13.3886719 C96.1029297,13.3886719 96.7503906,14.2075195 96.7503906,15.6357422 C96.7503906,17.0703125 96.1029297,17.8828125 95.1,17.8828125 Z M101.402539,21.215332 L101.402539,17.8828125 L101.434277,17.8828125 C101.802441,18.6381836 102.56416,19.1079102 103.541699,19.1079102 C105.230176,19.1079102 106.309277,17.78125 106.309277,15.6357422 C106.309277,13.4838867 105.223828,12.1572266 103.516309,12.1572266 C102.53877,12.1572266 101.777051,12.6523438 101.396191,13.4331055 L101.364453,13.4331055 L101.364453,12.2714844 L99.8219727,12.2714844 L99.8219727,21.215332 L101.402539,21.215332 Z M103.033887,17.8129883 C102.05,17.8129883 101.396191,16.9560547 101.389844,15.6357422 C101.396191,14.328125 102.05,13.4584961 103.033887,13.4584961 C104.055859,13.4584961 104.690625,14.309082 104.690625,15.6357422 C104.690625,16.96875 104.055859,17.8129883 103.033887,17.8129883 Z" id="XcodeShop" fill="#000000" fill-rule="nonzero"></path>
                <path d="M15.232928,21.5 L22.9270346,21.5 C24.2563143,21.5 25.0289991,20.7207671 25.0289991,19.2801684 L25.0289991,12.5159027 C25.0289991,11.0687558 24.2497661,10.2960711 22.7960711,10.2960711 L21.9644528,10.2960711 C21.9382601,8.75070159 20.6417212,7.5 19.0177736,7.5 C17.393826,7.5 16.090739,8.75070159 16.0645463,10.2960711 L15.232928,10.2960711 C13.7792329,10.2960711 13,11.0687558 13,12.5159027 L13,19.2801684 C13,20.7273152 13.7792329,21.5 15.232928,21.5 Z M19.0177736,8.78344247 C19.8952292,8.78344247 20.5238541,9.45135641 20.5500468,10.2960711 L17.4855005,10.2960711 C17.505145,9.45135641 18.1403181,8.78344247 19.0177736,8.78344247 Z M15.3704397,20.0004677 C14.8007484,20.0004677 14.4995323,19.712348 14.4995323,19.116464 L14.4995323,12.6796071 C14.4995323,12.0837231 14.8007484,11.7956034 15.3704397,11.7956034 L22.6585594,11.7956034 C23.2217025,11.7956034 23.536015,12.0837231 23.536015,12.6796071 L23.536015,19.116464 C23.536015,19.712348 23.2217025,20.0004677 22.7960711,20.0004677 L15.3704397,20.0004677 Z" id="bag" fill="#000000" fill-rule="nonzero"></path>
            </g>
        </g>
    </g>
</svg>